<svg width="575" height="575" viewBox="0 0 575 575" fill="none" xmlns="http://www.w3.org/2000/svg">
    <g clip-path="url(#clip0_37_200)">
	
    <path d="M0 0C189.75 0 379.5 0 575 0C575 189.75 575 379.5 575 575C385.25 575 195.5 575 0 575C0 385.25 0 195.5 0 0Z" fill="white"/>
	
	
    <path d="M364.653 67.3815C364.653 67.3815 376.132 67.4018 381.86 67.4018C381.869 95.4674 381.854 97.684 381.86 125.75C381.86 126.165 381.86 126.58 381.86 127.008C381.861 136.031 381.863 145.054 381.864 154.077C381.865 158.501 381.866 162.926 381.867 167.351C381.867 167.791 381.867 168.231 381.867 168.685C381.869 182.963 381.873 197.242 381.879 211.521C381.884 226.191 381.887 240.861 381.888 255.531C381.889 257.601 381.889 259.672 381.889 261.743C381.889 262.15 381.889 262.558 381.889 262.978C381.89 269.546 381.892 276.113 381.896 282.681C381.899 289.28 381.9 295.878 381.899 302.477C381.899 306.054 381.9 309.631 381.903 313.208C381.905 316.479 381.906 319.75 381.904 323.022C381.903 324.208 381.904 325.395 381.906 326.582C381.908 328.189 381.907 329.796 381.905 331.403C381.906 331.869 381.908 332.334 381.909 332.814C381.903 335.006 381.773 337.025 381.274 339.16C381.211 340.434 381.176 341.709 381.159 342.984C381.153 343.357 381.148 343.73 381.142 344.114C381.124 345.338 381.11 346.563 381.097 347.787C381.085 348.639 381.073 349.491 381.061 350.343C381.03 352.58 381.003 354.817 380.975 357.053C380.947 359.338 380.916 361.623 380.885 363.908C380.825 368.386 380.768 372.865 380.713 377.344C381.157 377.329 381.602 377.314 382.06 377.299C384.079 377.241 386.098 377.204 388.118 377.168C388.817 377.145 389.517 377.121 390.238 377.097C396.026 377.019 396.026 377.019 397.745 378.618C398.631 380.069 399.023 380.728 398.956 382.391C398.947 382.787 398.938 383.183 398.928 383.592C398.905 383.997 398.881 384.402 398.857 384.819C398.844 385.235 398.832 385.651 398.819 386.079C398.786 387.098 398.735 388.117 398.681 389.136C399.04 389.17 399.398 389.204 399.767 389.239C400.231 389.286 400.695 389.333 401.173 389.381C401.636 389.427 402.098 389.473 402.575 389.52C403.735 389.697 403.735 389.697 404.297 390.259C404.377 391.693 404.421 393.112 404.441 394.547C404.449 394.997 404.457 395.446 404.465 395.909C404.536 400.059 404.575 404.21 404.605 408.36C404.625 411.151 404.655 413.94 404.709 416.729C404.761 419.424 404.788 422.119 404.798 424.814C404.806 425.841 404.823 426.868 404.848 427.895C405.039 435.933 405.039 435.933 403.216 438.223C401.908 439.116 400.726 439.692 399.243 440.234C398.856 440.438 398.469 440.642 398.07 440.851C396.428 441.625 394.903 441.57 393.101 441.603C392.425 441.625 391.748 441.648 391.05 441.671C388.55 441.261 387.876 440.536 386.328 438.55C386.053 436.883 385.948 435.54 385.974 433.876C385.968 433.181 385.968 433.181 385.961 432.473C385.952 430.946 385.963 429.42 385.975 427.894C385.974 426.832 385.973 425.77 385.971 424.708C385.969 422.484 385.977 420.261 385.993 418.038C386.012 415.186 386.009 412.335 385.998 409.483C385.992 407.291 385.997 405.099 386.006 402.907C386.008 401.855 386.008 400.804 386.005 399.752C386.002 398.284 386.013 396.816 386.028 395.348C386.023 394.695 386.023 394.695 386.017 394.028C386.07 391.09 386.07 391.09 387.395 389.705C389.34 388.766 390.93 389.029 393.066 389.136C393.066 387.468 393.066 385.8 393.066 384.082C387.878 384.082 382.689 384.082 377.344 384.082C377.344 382.331 377.345 380.58 377.345 378.777C377.345 372.974 377.326 367.171 377.298 361.369C377.282 357.853 377.272 354.337 377.276 350.821C377.28 347.424 377.267 344.027 377.243 340.63C377.237 339.338 377.237 338.046 377.242 336.754C377.512 326.983 377.512 326.983 373.413 318.384C369.008 314.531 364.732 313.724 359.03 313.745C358.429 313.743 357.829 313.741 357.21 313.739C355.198 313.733 353.186 313.735 351.174 313.737C349.731 313.735 348.289 313.732 346.846 313.729C343.334 313.721 339.822 313.72 336.31 313.722C333.455 313.723 330.6 313.722 327.745 313.719C327.338 313.719 326.931 313.719 326.513 313.718C325.687 313.718 324.861 313.717 324.035 313.716C316.291 313.71 308.547 313.711 300.803 313.715C293.722 313.718 286.641 313.711 279.56 313.701C272.285 313.69 265.011 313.685 257.736 313.687C253.654 313.688 249.571 313.687 245.489 313.679C241.65 313.672 237.81 313.673 233.971 313.68C232.562 313.682 231.153 313.68 229.744 313.676C227.821 313.67 225.897 313.674 223.974 313.681C223.138 313.675 223.138 313.675 222.286 313.669C217.227 313.708 213.624 314.955 209.876 318.439C207.247 321.277 206.023 324.323 205.99 328.171C205.982 328.912 205.982 328.912 205.973 329.669C205.969 330.476 205.969 330.476 205.964 331.299C205.958 331.869 205.953 332.439 205.947 333.026C205.929 334.91 205.915 336.794 205.901 338.678C205.89 339.984 205.878 341.29 205.866 342.596C205.835 346.034 205.807 349.471 205.78 352.909C205.752 356.417 205.721 359.925 205.69 363.433C205.629 370.316 205.573 377.199 205.517 384.082C200.329 384.082 195.14 384.082 189.795 384.082C189.795 385.75 189.795 387.417 189.795 389.136C190.681 389.084 190.681 389.084 191.585 389.03C193.829 389.141 194.775 389.476 196.533 390.82C197.396 392.546 197.187 394.359 197.194 396.253C197.199 396.92 197.199 396.92 197.205 397.601C197.216 399.076 197.223 400.551 197.228 402.027C197.231 402.53 197.233 403.033 197.235 403.552C197.247 406.217 197.255 408.882 197.26 411.546C197.267 414.299 197.286 417.052 197.308 419.805C197.323 421.921 197.328 424.038 197.33 426.154C197.332 427.169 197.339 428.184 197.349 429.198C197.363 430.619 197.362 432.04 197.358 433.46C197.366 433.879 197.373 434.298 197.38 434.729C197.353 437.471 196.805 438.874 194.848 440.796C192.169 442.136 188.751 441.724 185.864 441.357C183.151 440.4 180.039 438.901 178.003 436.865C177.946 435.399 177.926 433.947 177.93 432.48C177.929 432.021 177.928 431.562 177.927 431.089C177.925 429.563 177.926 428.038 177.928 426.512C177.928 425.457 177.927 424.401 177.927 423.346C177.926 421.131 177.927 418.916 177.93 416.701C177.933 413.856 177.931 411.01 177.928 408.164C177.926 405.984 177.926 403.804 177.928 401.623C177.928 400.574 177.928 399.524 177.926 398.475C177.925 397.01 177.927 395.546 177.93 394.082C177.929 393.644 177.928 393.206 177.927 392.754C177.939 389.761 177.939 389.761 178.564 389.136C179.417 389.095 180.272 389.089 181.126 389.101C181.59 389.106 182.054 389.111 182.532 389.116C182.891 389.122 183.249 389.129 183.618 389.136C183.585 388.52 183.553 387.904 183.519 387.269C183.493 386.452 183.467 385.636 183.443 384.819C183.419 384.414 183.395 384.009 183.371 383.592C183.362 383.195 183.353 382.799 183.344 382.391C183.322 381.848 183.322 381.848 183.299 381.295C183.821 379.422 184.957 378.57 186.426 377.344C188.188 377.025 188.188 377.025 190.139 377.069C190.839 377.079 191.54 377.088 192.261 377.097C193.351 377.132 193.351 377.132 194.462 377.168C195.2 377.181 195.937 377.194 196.696 377.207C198.514 377.24 200.331 377.286 202.148 377.344C202.138 376.833 202.138 376.833 202.127 376.313C201.472 343.506 201.511 310.699 201.528 277.887C201.531 271.819 201.533 265.75 201.533 259.681C201.534 259.274 201.534 258.866 201.534 258.446C201.534 256.375 201.534 254.304 201.534 252.233C201.535 237.702 201.539 223.171 201.544 208.64C201.55 194.556 201.554 180.471 201.556 166.387C201.556 165.731 201.556 165.731 201.556 165.063C201.557 160.673 201.558 156.284 201.558 151.894C201.56 142.958 201.561 134.023 201.563 125.087C201.563 124.471 201.563 124.471 201.563 123.843C201.568 96.6 201.577 94.6256 201.587 67.3827C206.961 67.3827 212.334 67.3827 217.871 67.3827H218.882C267.246 67.568 315.703 67.2109 365.533 67.4018L364.653 67.3815Z" fill="#6CC365"/>
    
	<!--Cargo area background-->
	<rect x="217.871" y="71.875" width="147.681" height="146.558" fill="black"/>
    
	<!--First cargo area decorative strip-->
	<rect x="217.871" y="169.019" width="147.681" height="10.6689" fill="#153639"/>
    <path d="M217.871 169.019C217.871 166.538 219.882 164.526 222.363 164.526H361.06C363.541 164.526 365.552 166.538 365.552 169.019V169.019H217.871V169.019Z" fill="#556B6E"/>
    
	<!--Second cargo area decorative strip-->
	<rect x="217.871" y="195.972" width="147.681" height="10.6689" fill="#153639"/>
    <path d="M217.871 195.972C217.871 193.491 219.882 191.479 222.363 191.479H361.06C363.541 191.479 365.552 193.491 365.552 195.972V195.972H217.871V195.972Z" fill="#556B6E"/>
    
	<!--Third cargo area decorative strip-->
	<rect x="217.871" y="142.065" width="147.681" height="10.6689" fill="#153639"/>
    <path d="M217.871 142.065C217.871 139.584 219.882 137.573 222.363 137.573H361.06C363.541 137.573 365.552 139.584 365.552 142.065V142.065H217.871V142.065Z" fill="#556B6E"/>
    
	<!--Fourth cargo area decorative strip-->
	<rect x="217.871" y="115.112" width="147.681" height="10.6689" fill="#153639"/>
    <path d="M217.871 115.112C217.871 112.631 219.882 110.62 222.363 110.62H361.06C363.541 110.62 365.552 112.631 365.552 115.112V115.112H217.871V115.112Z" fill="#556B6E"/>
    
	<!--Fifth cargo area decorative strip-->
	<rect x="217.871" y="88.1592" width="147.681" height="10.6689" fill="#153639"/>
    <path d="M217.871 88.1592C217.871 85.6782 219.882 83.667 222.363 83.667H361.06C363.541 83.667 365.552 85.6782 365.552 88.1592V88.1592H217.871V88.1592Z" fill="#556B6E"/>
    
	<path d="M233.276 259.922C234.734 259.922 236.191 259.922 237.648 259.921C240.746 259.921 243.844 259.923 246.943 259.926C251.421 259.931 255.9 259.932 260.379 259.933C267.651 259.934 274.923 259.938 282.195 259.943C289.247 259.948 296.299 259.952 303.35 259.954C303.787 259.955 304.224 259.955 304.674 259.955C306.866 259.956 309.058 259.956 311.25 259.957C329.351 259.963 347.451 259.973 365.552 259.985C365.552 260.356 365.552 260.727 365.552 261.108C370.925 261.108 376.299 261.108 381.836 261.108C381.848 270.87 381.859 280.633 381.865 290.395C381.868 294.927 381.872 299.46 381.878 303.993C381.884 307.944 381.887 311.894 381.889 315.845C381.889 317.937 381.891 320.029 381.895 322.121C381.9 324.456 381.9 326.791 381.9 329.127C381.902 329.82 381.904 330.514 381.906 331.228C381.905 331.865 381.904 332.502 381.903 333.158C381.904 333.987 381.904 333.987 381.905 334.832C381.837 336.333 381.589 337.694 381.274 339.16C381.211 340.434 381.176 341.709 381.159 342.984C381.153 343.357 381.148 343.73 381.142 344.114C381.124 345.338 381.11 346.563 381.097 347.787C381.085 348.639 381.073 349.491 381.061 350.343C381.03 352.58 381.003 354.817 380.975 357.053C380.947 359.338 380.916 361.623 380.885 363.908C380.825 368.386 380.768 372.865 380.713 377.344C381.157 377.329 381.602 377.314 382.06 377.299C384.079 377.241 386.098 377.204 388.118 377.168C389.167 377.133 389.167 377.133 390.238 377.097C396.026 377.019 396.026 377.019 397.745 378.618C398.631 380.069 399.023 380.728 398.956 382.391C398.947 382.787 398.938 383.183 398.928 383.592C398.905 383.997 398.881 384.402 398.857 384.819C398.844 385.235 398.832 385.651 398.819 386.079C398.786 387.098 398.735 388.117 398.681 389.136C399.04 389.17 399.398 389.204 399.767 389.239C400.231 389.286 400.695 389.333 401.173 389.381C401.636 389.427 402.098 389.473 402.575 389.52C403.735 389.697 403.735 389.697 404.297 390.259C404.377 391.693 404.421 393.112 404.441 394.547C404.453 395.221 404.453 395.221 404.465 395.909C404.536 400.059 404.575 404.21 404.605 408.36C404.625 411.151 404.655 413.94 404.709 416.729C404.761 419.424 404.788 422.119 404.798 424.814C404.806 425.841 404.823 426.868 404.848 427.895C405.039 435.933 405.039 435.933 403.216 438.223C401.908 439.116 400.726 439.692 399.243 440.234C398.856 440.438 398.469 440.642 398.07 440.851C396.428 441.625 394.903 441.57 393.101 441.603C392.425 441.625 391.748 441.648 391.05 441.671C388.55 441.261 387.876 440.536 386.328 438.55C386.053 436.883 385.948 435.54 385.974 433.876C385.968 433.181 385.968 433.181 385.961 432.473C385.952 430.946 385.963 429.42 385.975 427.894C385.974 426.832 385.973 425.77 385.971 424.708C385.969 422.484 385.977 420.261 385.993 418.038C386.012 415.186 386.009 412.335 385.998 409.483C385.992 407.291 385.997 405.099 386.006 402.907C386.008 401.855 386.008 400.804 386.005 399.752C386.002 398.284 386.013 396.816 386.028 395.348C386.023 394.695 386.023 394.695 386.017 394.028C386.07 391.09 386.07 391.09 387.395 389.705C389.34 388.766 390.93 389.029 393.066 389.136C393.066 387.468 393.066 385.8 393.066 384.082C387.878 384.082 382.689 384.082 377.344 384.082C377.344 382.331 377.345 380.58 377.345 378.777C377.345 372.974 377.326 367.171 377.298 361.369C377.282 357.853 377.272 354.337 377.276 350.821C377.28 347.424 377.267 344.027 377.243 340.63C377.237 339.338 377.237 338.046 377.242 336.754C377.512 326.983 377.512 326.983 373.413 318.384C369.008 314.531 364.732 313.724 359.03 313.745C358.429 313.743 357.829 313.741 357.21 313.739C355.198 313.733 353.186 313.735 351.174 313.737C349.731 313.735 348.289 313.732 346.846 313.729C343.334 313.721 339.822 313.72 336.31 313.722C333.455 313.723 330.6 313.722 327.745 313.719C327.338 313.719 326.931 313.719 326.513 313.718C325.687 313.718 324.861 313.717 324.035 313.716C316.291 313.71 308.547 313.711 300.803 313.715C293.722 313.718 286.641 313.711 279.56 313.701C272.285 313.69 265.011 313.685 257.736 313.687C253.654 313.688 249.571 313.687 245.489 313.679C241.65 313.672 237.81 313.673 233.971 313.68C232.562 313.682 231.153 313.68 229.744 313.676C227.821 313.67 225.897 313.674 223.974 313.681C223.417 313.677 222.86 313.673 222.286 313.669C217.227 313.708 213.624 314.955 209.876 318.439C207.247 321.277 206.023 324.323 205.99 328.171C205.982 328.912 205.982 328.912 205.973 329.669C205.97 330.207 205.967 330.745 205.964 331.299C205.958 331.869 205.953 332.439 205.947 333.026C205.929 334.91 205.915 336.794 205.901 338.678C205.89 339.984 205.878 341.29 205.866 342.596C205.835 346.034 205.807 349.471 205.78 352.909C205.752 356.417 205.721 359.925 205.69 363.433C205.629 370.316 205.573 377.199 205.517 384.082C200.329 384.082 195.14 384.082 189.795 384.082C189.795 385.75 189.795 387.417 189.795 389.136C190.385 389.101 190.976 389.066 191.585 389.03C193.829 389.141 194.775 389.476 196.533 390.82C197.396 392.546 197.187 394.359 197.194 396.253C197.199 396.92 197.199 396.92 197.205 397.601C197.216 399.076 197.223 400.551 197.228 402.027C197.231 402.53 197.233 403.034 197.235 403.552C197.247 406.217 197.255 408.882 197.26 411.546C197.267 414.299 197.286 417.052 197.308 419.805C197.323 421.921 197.328 424.038 197.33 426.154C197.332 427.169 197.339 428.184 197.349 429.198C197.363 430.619 197.362 432.04 197.358 433.461C197.366 433.879 197.373 434.298 197.38 434.729C197.353 437.471 196.805 438.874 194.848 440.796C192.169 442.136 188.751 441.724 185.864 441.357C183.151 440.4 180.039 438.901 178.003 436.865C177.946 435.399 177.926 433.947 177.93 432.48C177.929 431.792 177.929 431.792 177.927 431.089C177.925 429.563 177.926 428.038 177.928 426.512C177.928 425.457 177.927 424.401 177.927 423.346C177.926 421.131 177.927 418.916 177.93 416.701C177.933 413.856 177.931 411.01 177.928 408.164C177.926 405.984 177.926 403.804 177.928 401.624C177.928 400.574 177.928 399.524 177.926 398.475C177.925 397.01 177.927 395.546 177.93 394.082C177.929 393.644 177.928 393.206 177.927 392.754C177.939 389.761 177.939 389.761 178.564 389.136C179.417 389.095 180.272 389.089 181.126 389.101C181.59 389.106 182.054 389.111 182.532 389.116C182.891 389.122 183.249 389.129 183.618 389.136C183.585 388.52 183.553 387.904 183.519 387.269C183.493 386.452 183.467 385.636 183.443 384.819C183.419 384.414 183.395 384.009 183.371 383.592C183.358 382.997 183.358 382.997 183.344 382.391C183.329 382.029 183.314 381.667 183.299 381.295C183.821 379.422 184.957 378.57 186.426 377.344C188.188 377.025 188.188 377.025 190.139 377.07C190.839 377.079 191.54 377.088 192.261 377.097C192.988 377.12 193.714 377.144 194.462 377.168C195.568 377.187 195.568 377.187 196.696 377.207C198.514 377.24 200.331 377.286 202.148 377.344C202.141 377.023 202.134 376.703 202.127 376.373C202.028 371.76 201.944 367.147 201.868 362.534C201.861 362.133 201.854 361.732 201.847 361.32C201.496 339.827 201.54 318.331 201.552 296.835C201.552 296.389 201.552 295.943 201.552 295.483C201.559 283.838 201.571 272.192 201.587 260.547C212.156 260.12 222.697 259.905 233.276 259.922Z" fill="#0A712F"/>
    <path d="M204.956 397.559C262.03 397.559 319.103 397.559 377.905 397.559C377.905 457.8 377.905 457.8 374.291 462.064C373.816 462.457 373.341 462.851 372.852 463.257C372.377 463.662 371.902 464.068 371.413 464.485C369.292 466.062 367.81 466.765 365.151 466.774C364.617 466.778 364.084 466.782 363.534 466.787C362.95 466.786 362.366 466.785 361.764 466.784C361.142 466.787 360.519 466.79 359.879 466.794C357.787 466.804 355.695 466.805 353.603 466.807C352.106 466.812 350.609 466.818 349.112 466.824C345.04 466.839 340.968 466.846 336.895 466.851C334.352 466.854 331.808 466.859 329.265 466.864C322.221 466.877 315.177 466.889 308.133 466.893C307.457 466.893 307.457 466.893 306.767 466.894C306.315 466.894 305.863 466.894 305.398 466.894C304.482 466.895 303.567 466.895 302.651 466.896C301.97 466.896 301.97 466.896 301.275 466.897C293.918 466.901 286.561 466.921 279.205 466.947C271.649 466.973 264.094 466.987 256.538 466.989C252.297 466.99 248.056 466.996 243.815 467.017C240.203 467.034 236.591 467.04 232.979 467.03C231.137 467.026 229.296 467.029 227.454 467.043C225.454 467.057 223.455 467.05 221.455 467.039C220.877 467.048 220.299 467.057 219.703 467.066C214.777 466.999 211.892 465.097 208.431 461.713C196.472 443.946 204.956 418.975 204.956 397.559Z" fill="#031417"/>
    <path d="M380.151 487.402C380.337 487.402 380.522 487.402 380.713 487.402C380.755 490.359 380.785 493.315 380.805 496.272C380.814 497.276 380.825 498.281 380.84 499.285C380.86 500.735 380.87 502.184 380.877 503.634C380.886 504.077 380.895 504.521 380.904 504.978C380.905 509.321 379.729 512.822 376.817 516.145C376.442 516.593 376.066 517.041 375.679 517.503C371.193 521.042 366.255 522.073 360.665 522.012C360.04 522.016 359.414 522.021 358.77 522.025C356.693 522.036 354.617 522.027 352.54 522.019C351.043 522.022 349.547 522.027 348.05 522.033C344.419 522.046 340.787 522.043 337.156 522.035C334.204 522.029 331.251 522.028 328.299 522.031C327.877 522.031 327.456 522.032 327.022 522.032C326.166 522.033 325.31 522.034 324.453 522.035C316.44 522.043 308.426 522.034 300.413 522.019C293.545 522.006 286.678 522.008 279.81 522.021C271.823 522.036 263.835 522.042 255.847 522.034C254.994 522.033 254.142 522.032 253.289 522.031C252.87 522.031 252.45 522.03 252.018 522.03C249.071 522.027 246.123 522.031 243.175 522.038C239.581 522.046 235.987 522.044 232.393 522.029C230.562 522.021 228.73 522.02 226.898 522.028C224.909 522.035 222.92 522.026 220.93 522.012C220.07 522.021 220.07 522.021 219.193 522.031C213.751 521.957 209.67 519.94 205.838 516.117C203.199 512.527 202.381 509.496 202.49 505.073C202.494 504.581 202.497 504.088 202.5 503.581C202.513 502.025 202.541 500.47 202.569 498.914C202.581 497.852 202.591 496.79 202.6 495.729C202.625 493.14 202.663 490.552 202.71 487.964C202.876 488.301 203.041 488.638 203.212 488.986C205.125 492.759 207.591 496.069 211.654 497.546C214.485 498.319 217.323 498.23 220.238 498.221C220.867 498.224 221.497 498.227 222.147 498.229C224.255 498.236 226.364 498.235 228.473 498.234C229.985 498.238 231.498 498.242 233.011 498.246C236.693 498.255 240.374 498.258 244.056 498.259C247.049 498.259 250.043 498.262 253.036 498.265C261.53 498.275 270.023 498.28 278.517 498.28C278.974 498.279 279.432 498.279 279.903 498.279C280.59 498.279 280.59 498.279 281.291 498.279C288.715 498.279 296.138 498.29 303.562 498.305C311.19 498.322 318.819 498.329 326.447 498.328C330.727 498.328 335.008 498.331 339.288 498.343C342.932 498.353 346.577 498.356 350.221 498.348C352.079 498.344 353.937 498.346 355.795 498.354C357.813 498.363 359.83 498.358 361.848 498.349C362.43 498.355 363.012 498.361 363.611 498.366C368.514 498.32 373.217 497.144 376.782 493.579C378.251 491.607 379.333 489.72 380.151 487.402Z" fill="#071417"/>
    <path d="M261.49 328.341C262.016 328.336 262.541 328.331 263.083 328.326C263.656 328.327 264.229 328.327 264.819 328.328C265.729 328.322 265.729 328.322 266.657 328.317C268.665 328.306 270.673 328.304 272.681 328.303C274.077 328.299 275.473 328.295 276.869 328.291C279.798 328.284 282.726 328.282 285.655 328.283C289.404 328.284 293.152 328.268 296.901 328.248C299.785 328.236 302.67 328.234 305.554 328.234C306.936 328.233 308.318 328.228 309.7 328.219C311.635 328.208 313.57 328.212 315.506 328.218C316.358 328.209 316.358 328.209 317.228 328.199C321.269 328.235 324.265 329.063 327.382 331.698C327.632 332.006 327.882 332.315 328.14 332.632C328.529 333.091 328.529 333.091 328.926 333.558C330.908 336.752 330.917 339.977 330.926 343.613C330.932 344.412 330.932 344.412 330.937 345.228C330.943 346.352 330.946 347.476 330.946 348.6C330.948 350.311 330.968 352.021 330.99 353.731C330.993 354.827 330.995 355.923 330.996 357.019C331.004 357.526 331.012 358.033 331.021 358.555C330.992 362.598 330.057 365.671 327.158 368.57C323.559 370.798 320.165 370.769 316.058 370.76C315.433 370.763 314.808 370.765 314.164 370.768C312.102 370.776 310.04 370.776 307.978 370.774C306.543 370.776 305.108 370.779 303.674 370.782C300.668 370.786 297.662 370.786 294.656 370.783C291.186 370.779 287.717 370.786 284.247 370.798C280.902 370.809 277.557 370.811 274.213 370.809C272.792 370.809 271.372 370.812 269.952 370.818C267.966 370.825 265.982 370.821 263.996 370.814C263.41 370.819 262.823 370.823 262.219 370.827C258.658 370.802 256.03 370.483 253.324 367.936C252.921 367.433 252.921 367.433 252.51 366.92C252.097 366.416 252.097 366.416 251.675 365.9C250.521 364.341 250.366 363.35 250.349 361.44C250.344 360.937 250.338 360.435 250.333 359.917C250.33 359.372 250.328 358.827 250.326 358.265C250.321 357.423 250.321 357.423 250.316 356.565C250.311 355.374 250.307 354.184 250.305 352.993C250.299 351.182 250.282 349.37 250.264 347.559C250.26 346.401 250.258 345.244 250.255 344.087C250.248 343.548 250.242 343.01 250.234 342.455C250.247 338.652 250.638 335.297 253.192 332.286C253.57 331.983 253.947 331.681 254.335 331.369C254.711 331.058 255.087 330.746 255.474 330.426C257.501 328.986 258.986 328.351 261.49 328.341Z" fill="#41595D"/>
    <path d="M261.67 265.601C281.683 265.601 301.695 265.601 322.314 265.601C322.314 281.166 322.314 296.731 322.314 312.769C302.302 312.769 282.289 312.769 261.67 312.769C261.67 297.203 261.67 281.638 261.67 265.601Z" fill="#011114"/>
    <path d="M364.99 206.641C365.176 206.641 365.361 206.641 365.552 206.641C365.552 210.532 365.552 214.423 365.552 218.433C317.002 218.433 268.453 218.433 218.433 218.433C218.433 222.509 218.433 226.586 218.433 230.786C266.982 230.786 315.531 230.786 365.552 230.786C365.552 234.863 365.552 238.939 365.552 243.14C316.817 243.14 268.083 243.14 217.871 243.14C217.871 231.466 217.871 219.792 217.871 207.764C218.994 208.887 218.994 208.887 218.994 217.31C267.173 217.31 315.352 217.31 364.99 217.31C364.99 213.789 364.99 210.268 364.99 206.641Z" fill="#016928"/>
    <path d="M380.151 487.402C380.337 487.402 380.522 487.402 380.713 487.402C380.713 492.776 380.713 498.15 380.713 503.687C378.049 503.681 375.385 503.676 372.641 503.671C370.947 503.677 369.253 503.683 367.559 503.694C364.874 503.711 362.189 503.724 359.504 503.712C357.337 503.702 355.171 503.711 353.005 503.734C352.181 503.739 351.357 503.737 350.533 503.728C345.192 503.597 345.192 503.597 340.549 505.929C339.492 507.066 338.623 508.136 337.841 509.48C336.499 511.676 335.478 513.008 332.94 513.711C330.73 513.907 328.546 513.942 326.33 513.922C325.482 513.933 324.634 513.945 323.786 513.96C321.49 513.992 319.194 513.993 316.898 513.985C314.976 513.982 313.055 513.993 311.134 514.005C306.597 514.031 302.061 514.031 297.525 514.015C292.856 513.998 288.189 514.027 283.521 514.078C279.503 514.12 275.486 514.134 271.469 514.125C269.073 514.12 266.679 514.125 264.283 514.159C262.028 514.189 259.775 514.183 257.519 514.151C256.696 514.145 255.873 514.151 255.05 514.171C248.997 514.306 248.997 514.306 246.701 512.5C245.202 511.004 243.944 509.387 242.722 507.662C241.613 506.148 240.807 505.192 239.209 504.248C237.51 503.983 237.51 503.983 235.603 504.005C234.873 503.994 234.142 503.983 233.39 503.972C232.595 503.968 231.8 503.964 231.005 503.961C230.19 503.951 229.375 503.941 228.56 503.93C226.419 503.903 224.277 503.887 222.135 503.872C219.948 503.855 217.761 503.829 215.575 503.804C211.286 503.756 206.998 503.719 202.71 503.687C202.71 498.498 202.71 493.31 202.71 487.964C203.081 488.705 203.451 489.446 203.833 490.21C206.007 493.914 208.502 496.685 212.72 497.837C215.203 498.314 217.718 498.229 220.238 498.221C220.868 498.224 221.498 498.227 222.147 498.229C224.255 498.236 226.364 498.235 228.473 498.234C229.986 498.238 231.498 498.242 233.011 498.246C236.693 498.255 240.374 498.258 244.056 498.259C247.049 498.259 250.043 498.262 253.036 498.265C261.53 498.275 270.023 498.28 278.517 498.28C278.974 498.279 279.432 498.279 279.903 498.279C280.591 498.279 280.591 498.279 281.292 498.279C288.715 498.279 296.138 498.29 303.562 498.305C311.19 498.322 318.819 498.329 326.447 498.328C330.727 498.328 335.008 498.331 339.288 498.343C342.932 498.353 346.577 498.356 350.221 498.348C352.079 498.344 353.937 498.346 355.795 498.354C357.813 498.363 359.83 498.358 361.848 498.349C362.43 498.355 363.012 498.361 363.611 498.366C368.514 498.32 373.217 497.144 376.782 493.579C378.251 491.607 379.333 489.72 380.151 487.402Z" fill="#486065"/>
    <path d="M219.412 386.254C220.196 386.251 220.196 386.251 220.996 386.248C221.851 386.249 221.851 386.249 222.722 386.249C223.331 386.248 223.94 386.246 224.567 386.244C226.611 386.239 228.654 386.239 230.698 386.238C232.162 386.235 233.625 386.232 235.089 386.229C239.069 386.222 243.048 386.218 247.027 386.216C249.513 386.214 251.999 386.212 254.485 386.209C261.37 386.203 268.256 386.197 275.141 386.195C275.802 386.195 275.802 386.195 276.476 386.194C276.918 386.194 277.359 386.194 277.814 386.194C278.709 386.194 279.603 386.194 280.498 386.193C281.164 386.193 281.164 386.193 281.843 386.193C289.032 386.191 296.222 386.181 303.412 386.168C310.797 386.155 318.182 386.148 325.568 386.147C329.713 386.146 333.858 386.143 338.003 386.133C341.902 386.123 345.801 386.122 349.7 386.127C351.131 386.128 352.561 386.125 353.991 386.12C355.946 386.113 357.9 386.116 359.854 386.122C360.701 386.115 360.701 386.115 361.565 386.108C366.399 386.142 370.586 386.994 374.214 390.36C375.872 392.277 377.905 394.941 377.905 397.559C320.832 397.559 263.759 397.559 204.956 397.559C204.956 397.188 204.956 396.817 204.956 396.436C205.327 396.436 205.697 396.436 206.079 396.436C206.125 395.938 206.172 395.44 206.219 394.927C207.061 391.211 209.635 389.61 212.64 387.583C214.812 386.426 216.981 386.258 219.412 386.254Z" fill="#DCE4E6"/>
    <path d="M218.433 218.433C266.797 218.433 315.161 218.433 364.99 218.433C364.99 222.509 364.99 226.586 364.99 230.786C316.626 230.786 268.262 230.786 218.433 230.786C218.433 226.709 218.433 222.633 218.433 218.433Z" fill="#72C667"/>
    <path d="M217.871 265.601C228.989 265.601 240.107 265.601 251.562 265.601C251.562 281.166 251.562 296.731 251.562 312.769C240.444 312.954 229.326 313.139 217.871 313.33C217.871 297.579 217.871 281.829 217.871 265.601Z" fill="#021214"/>
    <path d="M332.422 265.601C343.355 265.601 354.288 265.601 365.552 265.601C365.552 281.351 365.552 297.102 365.552 313.33C349.152 313.052 349.152 313.052 332.422 312.769C332.422 297.203 332.422 281.638 332.422 265.601Z" fill="#021214"/>
    <path d="M251.589 476.647C252.313 476.642 253.037 476.637 253.784 476.632C254.591 476.63 255.398 476.627 256.206 476.625C257.052 476.621 257.899 476.616 258.746 476.611C261.531 476.596 264.316 476.588 267.101 476.58C268.06 476.577 269.018 476.574 269.976 476.571C273.963 476.559 277.949 476.548 281.936 476.542C287.651 476.533 293.366 476.514 299.081 476.482C303.098 476.46 307.115 476.449 311.132 476.446C313.532 476.444 315.932 476.438 318.332 476.419C320.59 476.403 322.848 476.399 325.107 476.406C325.935 476.406 326.763 476.401 327.591 476.391C334.627 476.312 334.627 476.312 336.837 478.088C338.51 480.114 338.795 481.325 338.757 483.978C338.496 485.923 337.612 487.063 336.353 488.525C334.195 490.099 332.684 490.422 330.033 490.428C328.971 490.436 328.971 490.436 327.888 490.445C327.108 490.442 326.328 490.44 325.548 490.437C324.723 490.44 323.898 490.444 323.074 490.449C320.837 490.459 318.6 490.458 316.363 490.455C314.495 490.453 312.626 490.456 310.758 490.46C306.349 490.468 301.941 490.467 297.532 490.46C292.986 490.454 288.441 490.462 283.895 490.477C279.99 490.489 276.085 490.493 272.18 490.49C269.848 490.488 267.517 490.489 265.186 490.499C262.993 490.508 260.801 490.505 258.608 490.495C257.805 490.493 257.001 490.495 256.198 490.5C248.635 490.552 248.635 490.552 245.948 487.964C244.309 485.639 244.025 483.897 244.495 481.169C244.999 479.538 245.877 478.488 247.071 477.295C248.615 476.522 249.859 476.656 251.589 476.647Z" fill="#0B171D"/>
    <path d="M202.71 338.037C203.451 338.037 204.192 338.037 204.956 338.037C204.956 353.232 204.956 368.427 204.956 384.082C199.953 384.082 194.95 384.082 189.795 384.082C189.795 385.75 189.795 387.417 189.795 389.136C190.681 389.084 190.681 389.084 191.585 389.03C193.829 389.141 194.775 389.476 196.533 390.82C197.396 392.546 197.187 394.359 197.194 396.253C197.199 396.92 197.199 396.92 197.205 397.601C197.216 399.076 197.223 400.551 197.228 402.027C197.231 402.53 197.233 403.034 197.235 403.552C197.247 406.217 197.255 408.882 197.26 411.546C197.267 414.299 197.286 417.052 197.308 419.805C197.323 421.922 197.328 424.038 197.33 426.154C197.332 427.169 197.339 428.184 197.349 429.198C197.363 430.619 197.362 432.04 197.358 433.461C197.366 433.879 197.373 434.298 197.38 434.729C197.353 437.471 196.805 438.874 194.848 440.796C192.169 442.136 188.751 441.724 185.864 441.357C183.151 440.4 180.039 438.901 178.003 436.865C177.946 435.399 177.926 433.947 177.93 432.481C177.929 432.021 177.928 431.562 177.927 431.089C177.925 429.563 177.926 428.038 177.928 426.512C177.928 425.457 177.927 424.401 177.927 423.346C177.926 421.131 177.927 418.916 177.93 416.701C177.933 413.856 177.931 411.01 177.928 408.164C177.926 405.984 177.926 403.804 177.928 401.624C177.928 400.574 177.928 399.524 177.926 398.475C177.925 397.01 177.927 395.546 177.93 394.082C177.929 393.644 177.928 393.206 177.927 392.754C177.939 389.761 177.939 389.761 178.564 389.136C179.417 389.095 180.272 389.089 181.126 389.101C181.822 389.108 181.822 389.108 182.532 389.116C183.07 389.126 183.07 389.126 183.618 389.136C183.585 388.52 183.553 387.904 183.519 387.269C183.493 386.452 183.467 385.636 183.443 384.819C183.419 384.414 183.395 384.009 183.371 383.592C183.362 383.195 183.353 382.799 183.344 382.391C183.329 382.029 183.314 381.667 183.299 381.295C183.618 380.151 183.618 380.151 186.426 377.344C191.799 377.344 197.173 377.344 202.71 377.344C202.71 364.373 202.71 351.401 202.71 338.037Z" fill="#031115"/>
    <path d="M377.905 338.037C379.017 338.037 380.129 338.037 381.274 338.037C381.089 351.008 380.904 363.979 380.713 377.344C385.716 377.344 390.719 377.344 395.874 377.344C398.682 380.151 398.682 380.151 399 381.295C398.986 381.657 398.971 382.018 398.956 382.391C398.947 382.787 398.938 383.183 398.928 383.592C398.905 383.997 398.881 384.402 398.857 384.819C398.844 385.235 398.832 385.651 398.819 386.079C398.786 387.099 398.735 388.117 398.682 389.136C399.04 389.17 399.398 389.204 399.767 389.239C400.463 389.309 400.463 389.309 401.173 389.381C401.867 389.45 401.867 389.45 402.575 389.52C403.735 389.697 403.735 389.697 404.297 390.259C404.377 391.693 404.421 393.112 404.441 394.547C404.449 394.997 404.457 395.446 404.466 395.909C404.536 400.059 404.575 404.21 404.605 408.361C404.625 411.151 404.655 413.94 404.709 416.729C404.761 419.424 404.788 422.119 404.798 424.814C404.806 425.841 404.823 426.868 404.848 427.895C405.039 435.933 405.039 435.933 403.216 438.223C401.908 439.116 400.726 439.693 399.243 440.234C398.856 440.438 398.469 440.642 398.07 440.852C396.428 441.625 394.903 441.57 393.102 441.603C392.425 441.626 391.748 441.648 391.051 441.671C388.55 441.261 387.876 440.536 386.328 438.55C386.053 436.883 385.949 435.54 385.974 433.876C385.97 433.413 385.966 432.95 385.962 432.473C385.952 430.946 385.963 429.421 385.975 427.894C385.975 426.832 385.973 425.77 385.971 424.708C385.969 422.485 385.978 420.262 385.993 418.038C386.012 415.186 386.009 412.335 385.998 409.483C385.992 407.291 385.997 405.099 386.006 402.907C386.009 401.856 386.008 400.804 386.005 399.752C386.002 398.284 386.013 396.816 386.029 395.348C386.025 394.913 386.021 394.477 386.017 394.028C386.07 391.09 386.07 391.09 387.395 389.705C389.34 388.766 390.931 389.029 393.066 389.136C393.066 387.468 393.066 385.8 393.066 384.082C388.063 384.082 383.06 384.082 377.905 384.082C377.905 368.887 377.905 353.692 377.905 338.037Z" fill="#021012"/>
    <path d="M329.053 340.283C330.538 341.677 330.736 342.522 330.964 344.569C330.979 345.383 330.984 346.198 330.981 347.013C330.984 347.448 330.987 347.883 330.99 348.331C330.993 349.25 330.993 350.169 330.988 351.089C330.983 352.484 330.999 353.878 331.017 355.273C331.018 356.17 331.018 357.066 331.016 357.963C331.022 358.374 331.028 358.786 331.035 359.211C330.986 362.936 329.807 365.92 327.158 368.57C323.559 370.798 320.165 370.77 316.058 370.76C315.433 370.763 314.808 370.766 314.164 370.768C312.102 370.776 310.04 370.776 307.978 370.774C306.543 370.777 305.108 370.779 303.673 370.782C300.667 370.786 297.662 370.786 294.656 370.783C291.186 370.779 287.716 370.786 284.247 370.798C280.902 370.809 277.557 370.811 274.212 370.809C272.792 370.809 271.372 370.812 269.952 370.818C267.966 370.825 265.981 370.821 263.996 370.815C263.41 370.819 262.823 370.823 262.219 370.828C258.657 370.802 256.029 370.483 253.324 367.936C253.055 367.601 252.787 367.266 252.51 366.921C252.234 366.584 251.958 366.247 251.674 365.901C250.026 363.672 250.369 361.383 250.385 358.721C250.385 358.212 250.386 357.703 250.387 357.178C250.39 355.547 250.397 353.917 250.404 352.286C250.407 351.182 250.41 350.078 250.412 348.974C250.418 346.264 250.428 343.554 250.439 340.845C254.159 340.704 254.159 340.704 256.055 341.968C256.289 343.53 256.289 343.53 256.322 345.497C256.34 346.2 256.357 346.904 256.375 347.628C256.39 348.735 256.39 348.735 256.406 349.864C256.434 351.322 256.465 352.779 256.498 354.236C256.508 354.884 256.517 355.533 256.528 356.201C256.448 357.647 256.448 357.647 257.178 358.252C258.051 358.313 258.928 358.335 259.803 358.341C260.655 358.349 260.655 358.349 261.524 358.358C262.152 358.361 262.78 358.364 263.427 358.367C264.084 358.373 264.742 358.378 265.419 358.384C267.226 358.399 269.034 358.411 270.841 358.422C272.728 358.435 274.615 358.45 276.502 358.465C280.078 358.493 283.654 358.518 287.229 358.543C291.299 358.57 295.369 358.601 299.439 358.632C307.813 358.696 316.187 358.756 324.56 358.814C324.547 358.061 324.547 358.061 324.534 357.294C324.505 355.432 324.484 353.571 324.468 351.709C324.459 350.903 324.448 350.098 324.433 349.292C324.413 348.134 324.403 346.976 324.396 345.817C324.383 344.772 324.383 344.772 324.369 343.705C324.56 341.968 324.56 341.968 325.325 340.9C326.661 340.004 327.482 340.008 329.053 340.283Z" fill="#041316"/>
    <path d="M309.399 272.9C311.45 274.097 312.439 275.225 313.33 277.393C313.48 278.727 313.48 278.727 313.493 280.223C313.504 281.066 313.504 281.066 313.515 281.927C313.516 282.531 313.517 283.135 313.519 283.758C313.522 284.382 313.526 285.007 313.53 285.65C313.536 286.971 313.538 288.292 313.538 289.612C313.541 291.63 313.561 293.647 313.582 295.664C313.585 296.948 313.588 298.232 313.589 299.516C313.597 300.118 313.605 300.72 313.613 301.34C313.592 304.756 313.42 306.83 311.084 309.399C308.956 310.644 307.584 311.084 305.118 311.084C302.817 310.402 301.9 309.581 300.415 307.715C299.507 305.794 299.145 304.243 299.111 302.125C299.1 301.587 299.089 301.049 299.078 300.495C299.073 299.92 299.069 299.345 299.064 298.752C299.057 298.155 299.051 297.558 299.044 296.942C299.034 295.68 299.026 294.418 299.022 293.156C299.011 291.23 298.976 289.306 298.941 287.382C298.934 286.153 298.928 284.925 298.923 283.697C298.909 283.124 298.896 282.551 298.881 281.961C298.903 278.521 299.388 276.636 301.827 274.155C304.02 272.332 306.686 272.588 309.399 272.9Z" fill="#7D8C91"/>
    <path d="M351.514 272.9C353.192 273.6 353.992 274.053 354.943 275.589C355.53 277.044 355.594 278.146 355.608 279.713C355.618 280.573 355.618 280.573 355.629 281.451C355.631 282.068 355.632 282.684 355.633 283.319C355.637 283.956 355.641 284.593 355.645 285.249C355.65 286.597 355.653 287.944 355.653 289.291C355.655 291.349 355.676 293.406 355.697 295.464C355.7 296.774 355.702 298.083 355.703 299.393C355.711 300.007 355.72 300.621 355.728 301.254C355.707 304.703 355.531 306.787 353.198 309.399C350.962 310.931 348.517 310.906 345.899 310.522C343.871 309.315 342.85 308.191 341.968 306.03C341.814 304.674 341.814 304.674 341.796 303.148C341.787 302.575 341.778 302.001 341.769 301.41C341.766 300.794 341.763 300.177 341.76 299.542C341.752 298.587 341.752 298.587 341.744 297.612C341.736 296.265 341.731 294.918 341.729 293.571C341.722 291.512 341.695 289.455 341.666 287.397C341.661 286.087 341.657 284.778 341.654 283.468C341.643 282.854 341.632 282.24 341.621 281.607C341.649 276.837 341.649 276.837 343.321 274.767C345.889 272.463 348.173 272.606 351.514 272.9Z" fill="#7D8D92"/>
    <path d="M236.963 272.9C239.079 273.82 240.235 274.893 241.455 276.831C241.673 278.187 241.673 278.187 241.682 279.713C241.689 280.286 241.696 280.86 241.704 281.451C241.702 282.067 241.7 282.684 241.699 283.319C241.702 283.956 241.705 284.593 241.708 285.249C241.711 286.596 241.711 287.944 241.706 289.291C241.701 291.349 241.717 293.406 241.735 295.464C241.736 296.774 241.736 298.083 241.734 299.393C241.743 300.314 241.743 300.314 241.753 301.254C241.722 304.699 241.538 306.789 239.209 309.399C236.973 310.931 234.528 310.906 231.909 310.522C229.883 309.315 228.859 308.192 227.979 306.03C227.825 304.649 227.825 304.649 227.807 303.088C227.798 302.501 227.789 301.915 227.779 301.31C227.776 300.68 227.773 300.049 227.77 299.399C227.765 298.749 227.76 298.098 227.755 297.427C227.747 296.052 227.742 294.676 227.74 293.3C227.733 291.195 227.705 289.09 227.677 286.986C227.672 285.649 227.668 284.312 227.665 282.975C227.654 282.345 227.643 281.716 227.632 281.067C227.657 276.694 227.657 276.694 229.332 274.482C231.899 272.682 233.879 272.601 236.963 272.9Z" fill="#7E8F94"/>
    <path d="M280.762 272.901C282.813 274.097 283.8 275.225 284.692 277.393C284.843 278.706 284.843 278.706 284.856 280.172C284.866 280.998 284.866 280.998 284.877 281.841C284.878 282.433 284.88 283.025 284.881 283.635C284.885 284.247 284.889 284.859 284.892 285.49C284.898 286.784 284.901 288.078 284.901 289.373C284.903 291.349 284.923 293.326 284.945 295.302C284.948 296.561 284.95 297.819 284.951 299.077C284.959 299.667 284.967 300.257 284.976 300.864C284.95 305.002 284.26 306.822 281.499 309.891C279.419 310.902 277.41 310.89 275.146 310.523C273.119 309.315 272.098 308.191 271.216 306.03C271.054 304.653 271.054 304.653 271.026 303.097C271.013 302.512 271.001 301.927 270.988 301.325C270.981 300.696 270.975 300.067 270.968 299.419C270.96 298.77 270.953 298.121 270.945 297.451C270.931 296.078 270.922 294.704 270.915 293.331C270.9 291.232 270.858 289.134 270.816 287.035C270.806 285.7 270.798 284.365 270.792 283.03C270.776 282.403 270.759 281.777 270.742 281.131C270.766 276.88 270.766 276.88 272.066 275.117C274.828 272.666 277.137 272.176 280.762 272.901Z" fill="#7F8E92"/>
    <path d="M259.43 504.109C260.011 504.107 260.592 504.104 261.19 504.102C261.828 504.105 262.465 504.108 263.121 504.112C263.792 504.111 264.463 504.109 265.155 504.108C266.996 504.107 268.837 504.11 270.678 504.116C272.604 504.121 274.53 504.12 276.456 504.119C279.691 504.12 282.925 504.125 286.16 504.132C289.9 504.141 293.641 504.144 297.381 504.144C300.978 504.143 304.575 504.146 308.172 504.151C309.703 504.153 311.235 504.154 312.766 504.154C314.904 504.156 317.041 504.16 319.179 504.166C319.816 504.166 320.453 504.166 321.11 504.166C321.691 504.168 322.272 504.17 322.871 504.173C323.629 504.174 323.629 504.174 324.403 504.176C325.684 504.248 325.684 504.248 327.368 504.81C327.554 505.921 327.739 507.033 327.93 508.179C326.188 509.71 325.109 510.074 322.803 510.077C322.221 510.082 321.639 510.087 321.04 510.092C320.405 510.088 319.77 510.085 319.115 510.081C318.108 510.086 318.108 510.086 317.081 510.09C315.242 510.096 313.404 510.095 311.565 510.09C309.64 510.085 307.716 510.089 305.791 510.092C302.56 510.095 299.329 510.091 296.098 510.083C292.362 510.074 288.625 510.077 284.889 510.086C281.681 510.094 278.473 510.095 275.265 510.09C273.349 510.088 271.433 510.087 269.517 510.093C267.382 510.097 265.247 510.091 263.112 510.081C262.158 510.086 262.158 510.086 261.184 510.092C260.604 510.087 260.024 510.082 259.426 510.077C258.921 510.077 258.416 510.076 257.896 510.075C256.353 509.82 255.853 509.424 254.932 508.179C254.721 506.74 254.721 506.74 254.932 505.371C256.773 504.143 257.297 504.108 259.43 504.109Z" fill="#051417"/>
    <path d="M364.99 206.641C365.176 206.641 365.361 206.641 365.552 206.641C365.552 210.532 365.552 214.423 365.552 218.433C317.002 218.433 268.453 218.433 218.433 218.433C218.433 222.509 218.433 226.586 218.433 230.786C266.797 230.786 315.161 230.786 364.99 230.786C364.99 230.971 364.99 231.157 364.99 231.348C316.441 231.348 267.892 231.348 217.871 231.348C217.871 223.565 217.871 215.782 217.871 207.764C218.994 208.887 218.994 208.887 218.994 217.31C267.173 217.31 315.352 217.31 364.99 217.31C364.99 213.789 364.99 210.268 364.99 206.641Z" fill="#236535"/>
    <path d="M338.037 480.664C338.222 480.664 338.408 480.664 338.599 480.664C338.599 482.146 338.599 483.629 338.599 485.156C309.135 484.971 279.672 484.786 249.316 484.595C249.316 483.668 249.316 482.742 249.316 481.787C278.594 481.787 307.872 481.787 338.037 481.787C338.037 481.417 338.037 481.046 338.037 480.664Z" fill="#4A5E67"/>
    <path d="M179.725 389.081C180.419 389.091 180.419 389.091 181.126 389.101C181.59 389.106 182.054 389.111 182.532 389.116C182.891 389.122 183.249 389.129 183.618 389.136C183.584 395.486 183.541 401.836 183.486 408.186C183.461 411.135 183.439 414.083 183.424 417.031C183.409 419.875 183.386 422.718 183.358 425.562C183.349 426.649 183.342 427.735 183.339 428.822C183.333 430.34 183.318 431.858 183.299 433.376C183.3 433.829 183.301 434.282 183.302 434.748C183.281 435.999 183.281 435.999 183.057 437.988C182.223 438.544 182.223 438.544 181.372 439.111C179.712 438.274 179.712 438.274 178.003 436.865C177.67 435.188 177.568 433.964 177.612 432.289C177.61 431.83 177.609 431.37 177.607 430.897C177.607 429.38 177.63 427.864 177.654 426.348C177.659 425.295 177.663 424.242 177.665 423.189C177.674 420.418 177.705 417.649 177.739 414.878C177.763 412.611 177.773 410.344 177.782 408.077C177.793 405.381 177.81 402.686 177.83 399.991C177.833 399.474 177.837 398.956 177.841 398.423C177.852 396.967 177.868 395.511 177.886 394.055C177.891 393.402 177.891 393.402 177.896 392.735C177.947 389.165 177.947 389.165 179.725 389.081Z" fill="#1D3A3E"/>
    <path d="M399.243 389.136C403.735 389.697 403.735 389.697 404.297 390.259C404.365 391.699 404.397 393.124 404.405 394.565C404.41 395.016 404.414 395.467 404.419 395.932C404.433 397.431 404.442 398.931 404.45 400.43C404.453 400.941 404.456 401.452 404.459 401.978C404.474 404.682 404.485 407.386 404.493 410.09C404.503 412.887 404.528 415.683 404.557 418.48C404.575 420.627 404.582 422.774 404.585 424.921C404.589 425.952 404.597 426.983 404.611 428.014C404.629 429.456 404.629 430.898 404.625 432.341C404.634 432.768 404.643 433.195 404.652 433.634C404.627 435.804 404.473 436.682 402.943 438.271C401.489 439.111 401.489 439.111 400.366 439.111C400.366 438.741 400.366 438.37 400.366 437.988C399.996 437.988 399.625 437.988 399.243 437.988C399.243 421.867 399.243 405.746 399.243 389.136Z" fill="#1A3B40"/>
    <path d="M374.536 471.68C374.721 471.68 374.907 471.68 375.098 471.68C375.776 479.973 375.776 479.973 374.255 482.781C370.49 486.627 365.318 488.932 359.956 489.197C359.22 489.184 358.484 489.171 357.726 489.157C357.342 489.152 356.958 489.147 356.562 489.142C355.628 489.129 354.694 489.109 353.76 489.087C353.745 487.66 353.733 486.233 353.725 484.805C353.72 484.405 353.715 484.005 353.71 483.592C353.7 481.24 353.857 479.051 354.321 476.733C354.864 476.73 354.864 476.73 355.418 476.726C357.088 476.708 358.758 476.668 360.428 476.628C360.997 476.625 361.566 476.622 362.152 476.618C367.041 476.477 371.082 475.267 374.536 471.68Z" fill="#F7C1A7"/>
    <path d="M251.001 452.588C255.487 452.457 259.973 452.358 264.46 452.297C266.545 452.268 268.628 452.228 270.712 452.164C286.769 451.682 286.769 451.682 291.161 455.347C292.718 456.877 292.718 456.877 293.677 458.203C293.677 458.574 293.677 458.944 293.677 459.326C289.244 459.444 284.813 459.533 280.379 459.588C278.32 459.614 276.261 459.65 274.203 459.707C272.211 459.763 270.22 459.793 268.228 459.806C267.108 459.819 265.989 459.859 264.87 459.899C260.006 459.901 257.485 458.841 253.912 455.525C253.507 455.112 253.103 454.698 252.686 454.272C252.186 453.775 252.186 453.775 251.676 453.268C251.453 453.043 251.23 452.819 251.001 452.588Z" fill="#51696F"/>
    <path d="M208.887 472.803C209.223 473.039 209.56 473.276 209.907 473.52C215.467 476.881 221.053 476.683 227.398 476.672C228.54 476.733 228.54 476.733 229.102 477.295C229.15 478.172 229.162 479.051 229.157 479.929C229.155 480.459 229.153 480.99 229.151 481.536C229.144 482.373 229.144 482.373 229.137 483.226C229.134 483.786 229.132 484.346 229.129 484.923C229.122 486.311 229.113 487.699 229.102 489.087C221.42 489.673 216.34 488.696 210.082 483.928C208.419 481.73 208.566 480.074 208.711 477.4C208.724 476.958 208.737 476.515 208.75 476.059C208.783 474.973 208.833 473.888 208.887 472.803Z" fill="#F9C8AD"/>
    <path d="M330.737 452.588C335.174 452.549 339.611 452.519 344.048 452.501C346.108 452.492 348.169 452.48 350.229 452.461C352.217 452.442 354.204 452.432 356.192 452.428C357.321 452.423 358.449 452.41 359.577 452.397C360.605 452.397 360.605 452.397 361.655 452.397C362.562 452.391 362.562 452.391 363.487 452.385C364.99 452.588 364.99 452.588 366.045 453.317C366.675 454.272 366.675 454.272 366.605 456.273C366.113 458.203 366.113 458.203 364.429 459.326C363.262 459.495 363.262 459.495 361.904 459.534C361.394 459.55 360.884 459.566 360.358 459.583C358.017 459.626 355.676 459.667 353.334 459.688C352.104 459.704 350.874 459.731 349.644 459.769C338.116 460.125 338.116 460.125 334.495 456.88C333.342 455.529 333.342 455.529 332.422 454.272C331.867 453.704 331.306 453.142 330.737 452.588Z" fill="#54686D"/>
    <path d="M220.202 452.362C220.685 452.343 221.167 452.323 221.664 452.302C223.893 452.244 226.121 452.194 228.351 452.164C229.519 452.143 230.687 452.108 231.855 452.06C243.079 451.602 243.079 451.602 247.603 455.67C248.634 456.664 249.528 457.653 250.439 458.765C250.439 458.95 250.439 459.135 250.439 459.326C246.013 459.383 241.586 459.422 237.159 459.45C235.653 459.46 234.147 459.475 232.641 459.496C230.476 459.523 228.312 459.536 226.147 459.546C225.474 459.557 224.8 459.569 224.107 459.581C219.411 459.582 219.411 459.582 217.143 458.189C216.67 457.64 216.67 457.64 216.187 457.08C216.593 453.967 216.869 452.489 220.202 452.362Z" fill="#506569"/>
    <path d="M217.871 243.14C266.606 243.14 315.34 243.14 365.552 243.14C365.552 248.699 365.552 254.258 365.552 259.985C316.817 259.985 268.083 259.985 217.871 259.985C217.871 254.426 217.871 248.867 217.871 243.14ZM218.994 244.824C218.848 245.967 218.848 245.967 218.904 247.272C218.91 247.76 218.917 248.248 218.923 248.75C218.935 249.262 218.947 249.773 218.959 250.299C218.979 251.302 218.995 252.305 219.009 253.308C219.02 253.754 219.03 254.2 219.04 254.659C218.994 256.055 218.994 256.055 218.433 259.424C266.797 259.424 315.161 259.424 364.99 259.424C364.99 254.235 364.99 249.047 364.99 243.701C346.553 243.676 328.117 243.656 309.68 243.644C307.505 243.642 305.33 243.641 303.155 243.639C302.723 243.639 302.29 243.639 301.843 243.639C294.825 243.634 287.807 243.625 280.789 243.615C273.592 243.604 266.395 243.598 259.198 243.596C254.755 243.594 250.311 243.589 245.867 243.58C242.464 243.573 239.062 243.573 235.659 243.574C234.259 243.574 232.86 243.572 231.461 243.567C229.558 243.562 227.655 243.563 225.752 243.566C225.192 243.563 224.631 243.56 224.054 243.556C223.294 243.56 223.294 243.56 222.518 243.563C222.078 243.563 221.639 243.562 221.186 243.562C219.982 243.608 219.982 243.608 218.994 244.824Z" fill="#46A856"/>
    <path d="M294.8 452.588C298.674 452.43 302.548 452.323 306.425 452.249C307.741 452.218 309.057 452.176 310.372 452.122C322.494 451.639 322.494 451.639 326.273 454.798C327.537 456.05 328.599 457.3 329.614 458.765C329.614 458.95 329.614 459.135 329.614 459.326C325.92 459.484 322.227 459.592 318.53 459.665C317.277 459.696 316.023 459.738 314.77 459.792C307.724 460.087 302.338 460.263 296.884 455.376C296.156 454.666 295.472 453.912 294.8 453.149C294.8 452.964 294.8 452.779 294.8 452.588Z" fill="#52676B"/>
    <path d="M204.395 466.064C205.395 467.292 206.07 468.284 206.606 469.785C207.325 471.391 207.887 471.554 209.448 472.241C209.446 472.95 209.443 473.658 209.44 474.388C209.429 477.011 209.423 479.633 209.418 482.256C209.415 483.392 209.411 484.528 209.406 485.664C209.399 487.295 209.396 488.926 209.394 490.557C209.389 491.322 209.389 491.322 209.385 492.102C209.385 492.574 209.385 493.046 209.385 493.533C209.383 494.157 209.383 494.157 209.381 494.795C209.385 495.88 209.385 495.88 210.01 496.948C208.107 496.142 207.023 495.149 205.693 493.579C205.186 492.988 205.186 492.988 204.669 492.386C203.833 491.333 203.833 491.333 203.272 490.21C203.086 496.14 202.901 502.069 202.71 508.179C202.525 508.179 202.34 508.179 202.149 508.179C202.042 486.233 202.042 486.233 202.359 477.4C202.377 476.833 202.394 476.265 202.412 475.681C202.433 475.167 202.455 474.654 202.478 474.125C202.495 473.689 202.513 473.253 202.531 472.803C202.71 471.68 202.71 471.68 203.833 469.995C204.054 468.69 204.246 467.38 204.395 466.064Z" fill="#C9D2D5"/>
    <path d="M379.028 463.818C379.214 463.818 379.399 463.818 379.59 463.818C380.016 469.02 380.366 474.222 380.608 479.436C380.651 480.142 380.694 480.848 380.738 481.575C380.967 486.804 380.227 489.715 376.993 493.86C376.553 494.323 376.113 494.786 375.659 495.264C375.289 495.264 374.918 495.264 374.536 495.264C374.499 490.584 374.5 485.905 374.536 481.226C374.54 480.703 374.543 480.18 374.546 479.641C374.649 470.607 374.649 470.607 377.905 466.626C378.309 465.703 378.701 464.772 379.028 463.818Z" fill="#D2DEE1"/>
    <path d="M337.476 479.541C337.661 480.282 337.846 481.023 338.037 481.787C308.759 481.787 279.481 481.787 249.316 481.787C249.316 482.714 249.316 483.64 249.316 484.595C278.594 484.595 307.872 484.595 338.037 484.595C338.037 484.78 338.037 484.965 338.037 485.156C326.425 485.169 314.813 485.179 303.202 485.185C297.81 485.188 292.419 485.192 287.027 485.199C282.329 485.204 277.631 485.208 272.933 485.209C270.445 485.21 267.956 485.212 265.468 485.216C263.127 485.219 260.786 485.221 258.445 485.22C257.585 485.22 256.724 485.221 255.864 485.223C254.692 485.226 253.519 485.225 252.347 485.224C251.362 485.225 251.362 485.225 250.357 485.225C248.755 485.156 248.755 485.156 247.07 484.595C247.07 483.668 247.07 482.742 247.07 481.787C248.644 481 249.936 481.157 251.697 481.158C252.06 481.158 252.423 481.157 252.797 481.157C254.02 481.156 255.243 481.159 256.465 481.162C257.339 481.162 258.214 481.162 259.088 481.162C261.466 481.161 263.844 481.165 266.223 481.169C268.706 481.172 271.19 481.172 273.673 481.173C278.378 481.175 283.084 481.18 287.789 481.185C293.145 481.191 298.5 481.195 303.856 481.197C314.876 481.203 325.895 481.213 336.914 481.226C337.099 480.67 337.285 480.114 337.476 479.541Z" fill="#1A2C34"/>
    <path d="M202.148 261.108C202.704 261.386 202.704 261.386 203.272 261.67C203.086 283.906 202.901 306.143 202.71 329.053C203.451 329.238 204.192 329.423 204.956 329.614C204.956 328.688 204.956 327.761 204.956 326.807C205.141 326.807 205.327 326.807 205.518 326.807C205.518 345.708 205.518 364.608 205.518 384.082C205.332 384.082 205.147 384.082 204.956 384.082C204.956 368.887 204.956 353.692 204.956 338.037C204.215 338.037 203.474 338.037 202.71 338.037C202.168 336.218 202.079 334.58 202.081 332.686C202.08 332.054 202.079 331.423 202.079 330.772C202.081 330.082 202.083 329.392 202.085 328.68C202.085 327.952 202.085 327.223 202.084 326.472C202.084 324.476 202.088 322.479 202.092 320.483C202.095 318.396 202.095 316.308 202.096 314.221C202.098 310.27 202.102 306.318 202.108 302.367C202.114 297.868 202.117 293.369 202.12 288.87C202.126 279.616 202.136 270.362 202.148 261.108Z" fill="#1D5A37"/>
    <path d="M218.433 243.14C266.797 243.14 315.161 243.14 364.99 243.14C364.99 243.325 364.99 243.51 364.99 243.701C364.684 243.702 364.378 243.703 364.062 243.704C345.925 243.762 327.788 243.823 309.651 243.887C307.476 243.895 305.3 243.903 303.125 243.91C302.692 243.912 302.258 243.913 301.812 243.915C294.79 243.94 287.768 243.962 280.746 243.985C273.546 244.007 266.346 244.032 259.146 244.059C254.699 244.075 250.253 244.09 245.806 244.103C242.403 244.113 238.999 244.125 235.595 244.139C234.195 244.145 232.794 244.149 231.394 244.152C229.491 244.157 227.588 244.165 225.685 244.174C225.123 244.174 224.561 244.175 223.981 244.176C223.476 244.179 222.97 244.182 222.449 244.185C221.789 244.187 221.789 244.187 221.116 244.189C220.103 244.154 220.103 244.154 219.556 244.824C219.514 245.627 219.509 246.433 219.521 247.237C219.525 247.729 219.529 248.221 219.534 248.729C219.548 249.767 219.563 250.805 219.578 251.843C219.582 252.338 219.586 252.833 219.591 253.344C219.597 253.796 219.604 254.248 219.611 254.714C219.552 256.146 219.309 257.466 218.994 258.862C218.809 258.862 218.624 258.862 218.433 258.862C218.433 253.674 218.433 248.485 218.433 243.14Z" fill="#4CAF61"/>
    <path d="M234.717 505.371C236.801 506.575 237.408 507.217 238.086 509.547C238.086 511.783 237.815 512.649 236.402 514.355C234.599 515.66 232.968 515.746 230.786 515.478C229.27 514.468 228.236 513.747 227.417 512.109C227.207 510.249 227.207 510.249 227.417 508.179C229.797 505.298 231.078 504.443 234.717 505.371Z" fill="#F2F5F5"/>
    <path d="M351.424 505.042C353.667 505.65 354.297 506.741 355.444 508.74C355.857 510.987 355.662 511.782 354.392 513.689C353.006 515.115 352.489 515.422 350.531 515.689C348.012 515.398 347.034 514.526 345.337 512.671C344.67 510.741 344.67 510.741 344.775 508.74C346.442 505.684 347.928 504.797 351.424 505.042Z" fill="#F3F5F6"/>
    <path d="M365.589 505.138C367.413 505.529 368.286 506.204 369.482 507.617C370.114 509.512 370.114 509.512 370.044 511.548C368.685 513.84 367.834 514.735 365.271 515.514C363.072 515.474 362.179 515.187 360.498 513.794C359.195 511.994 359.064 510.356 359.375 508.179C361.128 505.658 362.617 504.925 365.589 505.138Z" fill="#F1F3F4"/>
    <path d="M219.503 505.123C220.679 505.371 220.679 505.371 222.117 506.178C223.324 508.33 223.35 510.263 222.925 512.671C221.998 514.215 221.319 514.702 219.628 515.27C218.399 515.528 217.434 515.634 216.186 515.479C214.537 514.145 214.537 514.145 213.379 512.671C213.193 512.486 213.008 512.3 212.817 512.109C212.501 509.841 212.752 508.854 213.905 506.845C215.559 505.05 217.141 504.938 219.503 505.123Z" fill="#F4F7F7"/>
    <path d="M221.24 480.103C223.834 480.103 226.429 480.103 229.102 480.103C229.102 483.067 229.102 486.032 229.102 489.087C226.507 489.087 223.913 489.087 221.24 489.087C221.24 486.122 221.24 483.157 221.24 480.103Z" fill="#4E5B5E"/>
    <path d="M353.76 480.103C356.354 480.103 358.948 480.103 361.621 480.103C361.621 482.882 361.621 485.662 361.621 488.525C359.707 489.004 358.362 489.147 356.427 489.122C355.547 489.11 354.667 489.099 353.76 489.087C353.76 486.122 353.76 483.157 353.76 480.103Z" fill="#5C6467"/>
    <path d="M238.647 480.664C240.161 482.022 240.785 482.915 241.174 484.911C240.787 486.799 240.23 487.43 238.647 488.525C236.682 488.841 236.682 488.841 234.717 488.525C233.203 487.167 232.579 486.275 232.19 484.279C232.916 480.739 235.356 480.135 238.647 480.664Z" fill="#152B2C"/>
    <path d="M348.706 480.664C349.794 481.261 349.794 481.261 350.391 482.349C350.672 484.556 350.727 485.774 349.478 487.648C347.731 488.798 346.828 488.91 344.775 488.525C343.407 487.332 343.407 487.332 342.529 485.718C342.565 483.93 342.804 482.826 343.723 481.296C345.407 480.285 346.793 480.459 348.706 480.664Z" fill="#0C161B"/>
    <path d="M279.077 341.406C280.56 341.406 282.042 341.406 283.569 341.406C283.755 341.962 283.94 342.518 284.131 343.091C284.501 343.091 284.872 343.091 285.254 343.091C285.254 344.573 285.254 346.056 285.254 347.583C283.695 348.643 282.903 348.702 280.972 348.636C279.077 348.145 279.077 348.145 278.27 347.197C277.883 345.607 277.88 344.16 277.954 342.529C278.325 342.529 278.695 342.529 279.077 342.529C279.077 342.159 279.077 341.788 279.077 341.406Z" fill="#07151A"/>
    <path d="M299.906 341.36C300.352 341.41 300.798 341.46 301.257 341.511C301.926 341.576 301.926 341.576 302.608 341.641C303.784 341.968 303.784 341.968 304.907 343.652C304.826 345.586 304.7 346.642 303.363 348.074C301.845 348.833 300.968 348.964 299.292 348.706C298.274 348.144 298.274 348.144 297.607 347.021C297.401 345.448 297.48 344.136 297.607 342.529C298.73 341.406 298.73 341.406 299.906 341.36Z" fill="#031218"/>
    <path d="M365.552 265.601C365.737 265.601 365.922 265.601 366.113 265.601C366.299 281.166 366.484 296.731 366.675 312.769C368.343 313.324 370.01 313.88 371.729 314.453C371.543 315.194 371.358 315.936 371.167 316.699C370.453 316.35 369.739 315.998 369.026 315.646C368.629 315.451 368.231 315.255 367.822 315.054C366.675 314.453 366.675 314.453 364.99 313.33C364.846 311.783 364.811 310.366 364.851 308.821C364.856 308.355 364.861 307.89 364.866 307.41C364.886 305.866 364.917 304.323 364.949 302.78C364.964 301.711 364.979 300.643 364.994 299.574C365.033 296.758 365.083 293.943 365.135 291.127C365.186 288.256 365.228 285.384 365.27 282.512C365.354 276.875 365.45 271.238 365.552 265.601Z" fill="#126B33"/>
    <path d="M377.905 327.93C378.646 327.93 379.388 327.93 380.151 327.93C381.529 329.997 381.402 331.548 381.345 333.931C381.34 334.325 381.334 334.719 381.329 335.125C381.316 336.096 381.296 337.067 381.274 338.037C380.163 338.037 379.051 338.037 377.905 338.037C377.905 334.702 377.905 331.366 377.905 327.93Z" fill="#0B4D35"/>
    <path d="M202.71 487.964C203.081 488.705 203.451 489.446 203.833 490.21C205.498 493.047 207.464 494.932 210.01 496.948C209.824 497.319 209.639 497.689 209.448 498.071C207.765 497.51 207.187 497.144 206.079 495.825C206.079 495.455 206.079 495.084 206.079 494.702C205.708 494.702 205.338 494.702 204.956 494.702C204.956 494.332 204.956 493.961 204.956 493.579C204.4 493.857 204.4 493.857 203.833 494.141C203.657 495.669 203.545 497.135 203.482 498.668C203.413 500.139 203.343 501.61 203.271 503.125C208.275 503.125 213.278 503.125 218.433 503.125C218.433 503.31 218.433 503.496 218.433 503.687C213.244 503.687 208.056 503.687 202.71 503.687C202.71 498.498 202.71 493.31 202.71 487.964Z" fill="#284145"/>
    <path d="M234.717 481.787C234.717 483.27 234.717 484.752 234.717 486.279C235.829 486.094 236.94 485.909 238.086 485.718C238.271 485.162 238.457 484.606 238.648 484.033C239.203 484.033 239.759 484.033 240.332 484.033C240.455 485.551 240.517 486.526 239.735 487.859C237.99 488.929 236.712 488.805 234.717 488.525C233.168 487.135 232.56 486.266 232.225 484.209C232.306 483.78 232.387 483.352 232.471 482.91C234.155 481.787 234.155 481.787 234.717 481.787Z" fill="#182123"/>
    <path d="M354.321 480.664C355.248 480.664 356.174 480.664 357.129 480.664C357.708 482.5 357.67 483.955 357.445 485.858C357.388 486.359 357.33 486.86 357.271 487.376C357.224 487.755 357.177 488.135 357.129 488.525C356.202 488.525 355.276 488.525 354.321 488.525C354.321 485.931 354.321 483.337 354.321 480.664Z" fill="#404D52"/>
    <path d="M202.71 329.053C203.822 329.331 203.822 329.331 204.956 329.614C204.956 332.394 204.956 335.173 204.956 338.037C204.215 338.037 203.474 338.037 202.71 338.037C202.158 336.195 202.073 334.516 202.078 332.597C202.077 332.051 202.075 331.504 202.074 330.941C202.148 329.614 202.148 329.614 202.71 329.053Z" fill="#094526"/>
    <path d="M218.433 243.14C225.659 243.14 232.886 243.14 240.332 243.14C240.332 243.325 240.332 243.51 240.332 243.701C239.723 243.715 239.113 243.729 238.485 243.744C236.232 243.797 233.979 243.853 231.726 243.91C230.75 243.935 229.773 243.958 228.796 243.98C227.395 244.013 225.995 244.049 224.594 244.085C224.155 244.094 223.715 244.104 223.263 244.113C221.241 243.986 221.241 243.986 219.556 244.824C219.514 245.627 219.509 246.433 219.521 247.237C219.525 247.729 219.529 248.221 219.534 248.729C219.548 249.767 219.563 250.805 219.578 251.843C219.582 252.338 219.586 252.833 219.591 253.344C219.597 253.796 219.604 254.248 219.611 254.714C219.552 256.146 219.309 257.466 218.994 258.862C218.809 258.862 218.624 258.862 218.433 258.862C218.433 253.674 218.433 248.485 218.433 243.14Z" fill="#55B465"/>
    <path d="M250.439 340.845C250.995 341.03 251.551 341.215 252.124 341.406C251.939 341.777 251.753 342.147 251.562 342.529C251.474 344.125 251.417 345.709 251.385 347.307C251.373 347.779 251.361 348.251 251.349 348.737C251.313 350.247 251.28 351.758 251.247 353.268C251.222 354.291 251.198 355.314 251.173 356.337C251.113 358.847 251.056 361.357 251.001 363.867C250.816 363.867 250.63 363.867 250.439 363.867C250.439 356.27 250.439 348.672 250.439 340.845Z" fill="#121C1D"/>
    <path d="M238.647 480.664C240.244 482.096 240.843 482.904 241.034 485.051C240.988 485.456 240.941 485.862 240.894 486.279C240.708 485.538 240.523 484.797 240.332 484.033C239.776 484.033 239.22 484.033 238.647 484.033C238.647 483.663 238.647 483.292 238.647 482.91C238.022 482.922 237.397 482.933 236.752 482.945C234.717 482.91 234.717 482.91 233.594 482.349C233.594 481.978 233.594 481.607 233.594 481.226C235.351 480.347 236.714 480.464 238.647 480.664Z" fill="#1D2526"/>
    <path d="M227.417 480.664C227.973 480.664 228.529 480.664 229.102 480.664C229.102 483.258 229.102 485.853 229.102 488.525C228.546 488.34 227.99 488.155 227.417 487.964C227.417 485.555 227.417 483.146 227.417 480.664Z" fill="#36454B"/>
    <path d="M218.433 243.14C218.989 243.14 219.544 243.14 220.117 243.14C219.932 243.696 219.747 244.251 219.556 244.824C219.517 245.664 219.508 246.506 219.521 247.347C219.525 247.835 219.529 248.324 219.534 248.827C219.548 249.851 219.563 250.874 219.578 251.898C219.619 256.53 219.619 256.53 218.994 258.862C218.809 258.862 218.624 258.862 218.433 258.862C218.433 253.674 218.433 248.485 218.433 243.14Z" fill="#5FBD68"/>
    <path d="M380.151 487.402C380.337 487.402 380.522 487.402 380.713 487.402C380.713 489.255 380.713 491.108 380.713 493.018C380.157 493.018 379.601 493.018 379.028 493.018C379.028 493.388 379.028 493.759 379.028 494.141C378.287 494.326 377.546 494.511 376.782 494.702C377.729 492.176 378.925 489.801 380.151 487.402Z" fill="#3E565A"/>
    <path d="M238.647 484.033C239.203 484.033 239.759 484.033 240.332 484.033C240.402 485.367 240.402 485.367 240.332 486.841C239.209 487.964 239.209 487.964 237.454 488.034C236.655 487.999 236.655 487.999 235.84 487.964C236.378 487.46 236.378 487.46 236.928 486.946C238.2 485.769 238.2 485.769 238.647 484.033Z" fill="#071415"/>
    <path d="M328.491 366.675C329.047 366.86 329.603 367.045 330.176 367.236C328.956 368.771 328.009 369.892 326.056 370.355C324.806 370.486 323.571 370.575 322.314 370.605C323.999 369.482 323.999 369.482 325.719 368.64C327.386 367.896 327.386 367.896 328.491 366.675Z" fill="#C6D1D2"/>
    <path d="M290.869 457.08C291.61 457.451 292.352 457.821 293.115 458.203C293.115 458.388 293.115 458.574 293.115 458.765C289.78 458.765 286.444 458.765 283.008 458.765C283.008 458.579 283.008 458.394 283.008 458.203C283.528 458.169 284.049 458.135 284.585 458.1C285.594 458.029 285.594 458.029 286.623 457.957C287.629 457.889 287.629 457.889 288.656 457.819C290.243 457.823 290.243 457.823 290.869 457.08Z" fill="#5D7176"/>
    <path d="M250.439 339.16C252.019 339.02 252.019 339.02 253.809 339.16C254.861 340.283 254.861 340.283 255.493 341.406C251.703 341.477 251.703 341.477 250.439 340.845C250.439 340.289 250.439 339.733 250.439 339.16Z" fill="#2F3F43"/>
    <path d="M202.71 329.053C203.451 329.238 204.192 329.423 204.956 329.614C204.956 330.541 204.956 331.467 204.956 332.422C204.215 332.607 203.474 332.792 202.71 332.983C202.71 331.686 202.71 330.389 202.71 329.053Z" fill="#005522"/>
    <path d="M365.552 312.769C368.609 313.602 368.609 313.602 371.729 314.453C371.543 315.194 371.358 315.936 371.167 316.699C370.453 316.35 369.739 315.998 369.026 315.646C368.629 315.451 368.231 315.255 367.822 315.054C366.675 314.453 366.675 314.453 364.99 313.33C365.176 313.145 365.361 312.959 365.552 312.769Z" fill="#307C4F"/>
    <path d="M378.467 325.684C378.652 326.054 378.837 326.425 379.028 326.807C379.77 326.621 380.511 326.436 381.274 326.245C381.274 327.357 381.274 328.469 381.274 329.614C380.719 329.892 380.719 329.892 380.151 330.176C380.151 329.435 380.151 328.693 380.151 327.93C379.41 327.93 378.669 327.93 377.905 327.93C378.091 327.188 378.276 326.447 378.467 325.684Z" fill="#055D2C"/>
    <path d="M251.001 452.588C253.781 452.588 256.56 452.588 259.424 452.588C259.424 452.773 259.424 452.958 259.424 453.149C258.835 453.2 258.835 453.2 258.235 453.253C257.724 453.3 257.213 453.347 256.686 453.395C256.178 453.441 255.67 453.486 255.147 453.533C253.802 453.638 253.802 453.638 252.686 454.272C252.13 453.717 251.574 453.161 251.001 452.588Z" fill="#4C6165"/>
    <path d="M329.614 338.037C329.985 338.037 330.355 338.037 330.737 338.037C330.737 339.52 330.737 341.002 330.737 342.529C329.86 341.862 329.86 341.862 329.053 340.845C329.228 339.336 329.228 339.336 329.614 338.037Z" fill="#505D60"/>

	<!--Middle of the final part of the truck-->
    <rect x="218.433" y="60.6445" width="146.558" height="11.2305" fill="#6CC365"/>
	
    <!--Left side of the final part of the truck-->
	<rect x="201.587" y="71.875" width="25.8301" height="16.8457" transform="rotate(-90 201.587 71.875)" fill="#6CC365"/>
	
	<!--Right side of the final part of the truck-->
    <rect x="364.99" y="71.875" width="25.8301" height="16.8457" transform="rotate(-90 364.99 71.875)" fill="#6CC365"/>

	<!--Seats in cabin area-->
    <rect id="seat1" x="304.161" y="409.728" width="30.6914" height="30.6914" fill="#D9D9D9" stroke="#4A5E67" stroke-width="3"/>
    <rect id="seat2" x="248.009" y="409.728" width="30.6914" height="30.6914" fill="#D9D9D9" stroke="#4A5E67" stroke-width="3"/>
	
	<!--Seats in cargo area-->
    <rect id="seat3" x="304.723" y="183.995" width="30.6914" height="30.6914" fill="#D9D9D9" stroke="#4A5E67" stroke-width="3"/>
    <rect id="seat4" x="248.57" y="183.995" width="30.6914" height="30.6914" fill="#D9D9D9" stroke="#4A5E67" stroke-width="3"/>
    <rect id="seat5" x="304.723" y="148.058" width="30.6914" height="30.6914" fill="#D9D9D9" stroke="#4A5E67" stroke-width="3"/>
    <rect id="seat6" x="248.57" y="148.058" width="30.6914" height="30.6914" fill="#D9D9D9" stroke="#4A5E67" stroke-width="3"/>
    <rect id="seat7" x="304.723" y="112.12" width="30.6914" height="30.6914" fill="#D9D9D9" stroke="#4A5E67" stroke-width="3"/>
    <rect id="seat8" x="248.57" y="112.12" width="30.6914" height="30.6914" fill="#D9D9D9" stroke="#4A5E67" stroke-width="3"/>
    <rect id="seat9" x="304.723" y="76.1826" width="30.6914" height="30.6914" fill="#D9D9D9" stroke="#4A5E67" stroke-width="3"/>
    <rect id="seat10" x="248.57" y="76.1826" width="30.6914" height="30.6914" fill="#D9D9D9" stroke="#4A5E67" stroke-width="3"/>

    </g>
    <defs>
    <clipPath id="clip0_37_200">
    <rect width="575" height="575" fill="white"/>
    </clipPath>
    </defs>
    </svg>
    