<svg width="575" height="575" viewBox="0 0 575 575" fill="none" xmlns="http://www.w3.org/2000/svg">
    <mask id="mask0_54_101" style="mask-type:luminance" maskUnits="userSpaceOnUse" x="0" y="0" width="575" height="575">
    <path d="M575 0H0V575H575V0Z" fill="white"/>
    </mask>
    <g mask="url(#mask0_54_101)">
    <path d="M0 0C189.75 0 379.5 0 575 0C575 189.75 575 379.5 575 575C385.25 575 195.5 575 0 575C0 385.25 0 195.5 0 0Z" fill="white"/>
    <path d="M365 243H218V260H365V243Z" class="primary-fill-color" fill="#6CC365"/>
    <rect x="205.6" y="386" width="173" height="114" fill="#FFFFF0"/>
    <path d="M203 402C203 399.239 205.239 397 208 397H375C377.761 397 380 399.239 380 402V472H203V402Z" fill="#FFFFF0"/>
    <path d="M365.552 71.875H217.871V218.433H365.552V71.875Z" fill="black"/>
    <path d="M365.552 169.019H217.871V179.688H365.552V169.019Z" fill="#153639"/>
    <path d="M217.871 169.019C217.871 166.538 219.882 164.526 222.363 164.526H361.06C363.541 164.526 365.552 166.538 365.552 169.019H217.871Z" fill="#556B6E"/>
    <path d="M365.552 195.972H217.871V206.641H365.552V195.972Z" fill="#153639"/>
    <path d="M217.871 195.972C217.871 193.491 219.882 191.479 222.363 191.479H361.06C363.541 191.479 365.552 193.491 365.552 195.972H217.871Z" fill="#556B6E"/>
    <path d="M365.552 142.065H217.871V152.734H365.552V142.065Z" fill="#153639"/>
    <path d="M217.871 142.065C217.871 139.584 219.882 137.573 222.363 137.573H361.06C363.541 137.573 365.552 139.584 365.552 142.065H217.871Z" fill="#556B6E"/>
    <path d="M365.552 115.112H217.871V125.781H365.552V115.112Z" fill="#153639"/>
    <path d="M365.552 88.1592H217.871V98.8281H365.552V88.1592Z" fill="#153639"/>
    <path d="M217.871 88.1592C217.871 85.6782 219.882 83.667 222.363 83.667H361.06C363.541 83.667 365.552 85.6782 365.552 88.1592H217.871Z" fill="#556B6E"/>
    <path d="M380.151 487.402C380.337 487.402 380.522 487.402 380.713 487.402C380.755 490.359 380.785 493.315 380.805 496.272C380.814 497.276 380.825 498.281 380.84 499.285C380.86 500.735 380.87 502.184 380.877 503.634C380.886 504.077 380.895 504.521 380.904 504.978C380.905 509.321 379.729 512.822 376.817 516.145C376.442 516.593 376.066 517.041 375.679 517.503C371.193 521.042 366.255 522.073 360.665 522.012C360.04 522.016 359.414 522.021 358.77 522.025C356.693 522.036 354.617 522.027 352.54 522.019C351.043 522.022 349.547 522.027 348.05 522.033C344.419 522.046 340.787 522.043 337.156 522.035C334.204 522.029 331.251 522.028 328.299 522.031C327.877 522.031 327.456 522.032 327.022 522.032C326.166 522.033 325.31 522.034 324.453 522.035C316.44 522.043 308.426 522.034 300.413 522.019C293.545 522.006 286.678 522.008 279.81 522.021C271.823 522.036 263.835 522.042 255.847 522.034C254.994 522.033 254.142 522.032 253.289 522.031C252.87 522.031 252.45 522.03 252.018 522.03C249.071 522.027 246.123 522.031 243.175 522.038C239.581 522.046 235.987 522.044 232.393 522.029C230.562 522.021 228.73 522.02 226.898 522.028C224.909 522.035 222.92 522.026 220.93 522.012C220.07 522.021 220.07 522.021 219.193 522.031C213.751 521.957 209.67 519.94 205.838 516.117C203.199 512.527 202.381 509.496 202.49 505.073C202.494 504.581 202.497 504.088 202.5 503.581C202.513 502.025 202.541 500.47 202.569 498.914C202.581 497.852 202.591 496.79 202.6 495.729C202.625 493.14 202.663 490.552 202.71 487.964C202.876 488.301 203.041 488.638 203.212 488.986C205.125 492.759 207.591 496.069 211.654 497.546C214.485 498.319 217.323 498.23 220.238 498.221C220.867 498.224 221.497 498.227 222.147 498.229C224.255 498.236 226.364 498.235 228.473 498.234C229.985 498.238 231.498 498.242 233.011 498.246C236.693 498.255 240.374 498.258 244.056 498.259C247.049 498.259 250.043 498.262 253.036 498.265C261.53 498.275 270.023 498.28 278.517 498.28C278.974 498.279 279.432 498.279 279.903 498.279C280.59 498.279 280.59 498.279 281.291 498.279C288.715 498.279 296.138 498.29 303.562 498.305C311.19 498.322 318.819 498.329 326.447 498.328C330.727 498.328 335.008 498.331 339.288 498.343C342.932 498.353 346.577 498.356 350.221 498.348C352.079 498.344 353.937 498.346 355.795 498.354C357.813 498.363 359.83 498.358 361.848 498.349C362.43 498.355 363.012 498.361 363.611 498.366C368.514 498.32 373.217 497.144 376.782 493.579C378.251 491.607 379.333 489.72 380.151 487.402Z" fill="#071417"/>
    <path d="M382 260H202V328H382V260Z" class="secondary-fill-color" fill="#016928"/>
    <path d="M261.67 265.601C281.683 265.601 301.695 265.601 322.314 265.601C322.314 281.166 322.314 296.731 322.314 312.769C302.302 312.769 282.289 312.769 261.67 312.769C261.67 297.203 261.67 281.638 261.67 265.601Z" fill="#011114"/>
    <path d="M380.151 487.402C380.337 487.402 380.522 487.402 380.713 487.402C380.713 492.776 380.713 498.15 380.713 503.687C378.049 503.681 375.385 503.676 372.641 503.671C370.947 503.677 369.253 503.683 367.559 503.694C364.874 503.711 362.189 503.724 359.504 503.712C357.337 503.702 355.171 503.711 353.005 503.734C352.181 503.739 351.357 503.737 350.533 503.728C345.192 503.597 345.192 503.597 340.549 505.929C339.492 507.066 338.623 508.136 337.841 509.48C336.499 511.676 335.478 513.008 332.94 513.711C330.73 513.907 328.546 513.942 326.33 513.922C325.482 513.933 324.634 513.945 323.786 513.96C321.49 513.992 319.194 513.993 316.898 513.985C314.976 513.982 313.055 513.993 311.134 514.005C306.597 514.031 302.061 514.031 297.525 514.015C292.856 513.998 288.189 514.027 283.521 514.078C279.503 514.12 275.486 514.134 271.469 514.125C269.073 514.12 266.679 514.125 264.283 514.159C262.028 514.189 259.775 514.183 257.519 514.151C256.696 514.145 255.873 514.151 255.05 514.171C248.997 514.306 248.997 514.306 246.701 512.5C245.202 511.004 243.944 509.387 242.722 507.662C241.613 506.148 240.807 505.192 239.209 504.248C237.51 503.983 237.51 503.983 235.603 504.005C234.873 503.994 234.142 503.983 233.39 503.972C232.595 503.968 231.8 503.964 231.005 503.961C230.19 503.951 229.375 503.941 228.56 503.93C226.419 503.903 224.277 503.887 222.135 503.872C219.948 503.855 217.761 503.829 215.575 503.804C211.286 503.756 206.998 503.719 202.71 503.687C202.71 498.498 202.71 493.31 202.71 487.964C203.081 488.705 203.451 489.446 203.833 490.21C206.007 493.914 208.502 496.685 212.72 497.837C215.203 498.314 217.718 498.229 220.238 498.221C220.868 498.224 221.498 498.227 222.147 498.229C224.255 498.236 226.364 498.235 228.473 498.234C229.986 498.238 231.498 498.242 233.011 498.246C236.693 498.255 240.374 498.258 244.056 498.259C247.049 498.259 250.043 498.262 253.036 498.265C261.53 498.275 270.023 498.28 278.517 498.28C278.974 498.279 279.432 498.279 279.903 498.279C280.591 498.279 280.591 498.279 281.292 498.279C288.715 498.279 296.138 498.29 303.562 498.305C311.19 498.322 318.819 498.329 326.447 498.328C330.727 498.328 335.008 498.331 339.288 498.343C342.932 498.353 346.577 498.356 350.221 498.348C352.079 498.344 353.937 498.346 355.795 498.354C357.813 498.363 359.83 498.358 361.848 498.349C362.43 498.355 363.012 498.361 363.611 498.366C368.514 498.32 373.217 497.144 376.782 493.579C378.251 491.607 379.333 489.72 380.151 487.402Z" fill="#486065"/>
    <path d="M219.412 386.254C220.196 386.251 220.196 386.251 220.996 386.248C221.851 386.249 221.851 386.249 222.722 386.249C223.331 386.248 223.94 386.246 224.567 386.244C226.611 386.239 228.654 386.239 230.698 386.238C232.162 386.235 233.625 386.232 235.089 386.229C239.069 386.222 243.048 386.218 247.027 386.216C249.513 386.214 251.999 386.212 254.485 386.209C261.37 386.203 268.256 386.197 275.141 386.195C275.802 386.195 275.802 386.195 276.476 386.194C276.918 386.194 277.359 386.194 277.814 386.194C278.709 386.194 279.603 386.194 280.498 386.193C281.164 386.193 281.164 386.193 281.843 386.193C289.032 386.191 296.222 386.181 303.412 386.168C310.797 386.155 318.182 386.148 325.568 386.147C329.713 386.146 333.858 386.143 338.003 386.133C341.902 386.123 345.801 386.122 349.7 386.127C351.131 386.128 352.561 386.125 353.991 386.12C355.946 386.113 357.9 386.116 359.854 386.122C360.701 386.115 360.701 386.115 361.565 386.108C366.399 386.142 370.586 386.994 374.214 390.36C375.872 392.277 377.905 394.941 377.905 397.559C320.832 397.559 264.803 398 206 398V397.5L206.079 396.436C206.125 395.938 206.172 395.44 206.219 394.927C207.061 391.211 209.635 389.61 212.64 387.583C214.812 386.426 216.981 386.258 219.412 386.254Z" fill="#DCE4E6"/>
    <path d="M205.852 397.559C262.926 397.559 319.103 397.559 377.905 397.559C377.905 457.8 377.905 457.8 374.291 462.064C373.816 462.457 373.341 462.851 372.852 463.257C372.377 463.662 371.902 464.068 371.413 464.485C369.292 466.062 367.81 466.765 365.151 466.774C364.617 466.778 364.084 466.782 363.534 466.787C362.95 466.786 362.366 466.785 361.764 466.784C361.142 466.787 360.519 466.79 359.879 466.794C357.787 466.804 355.695 466.805 353.603 466.807C352.106 466.812 350.609 466.818 349.112 466.824C345.04 466.839 340.968 466.846 336.895 466.851C334.352 466.854 331.808 466.859 329.265 466.864C322.221 466.877 315.177 466.889 308.133 466.893C307.457 466.893 307.457 466.893 306.767 466.894C306.315 466.894 305.863 466.894 305.398 466.894C304.482 466.895 303.567 466.895 302.651 466.896C301.97 466.896 301.97 466.896 301.275 466.897C293.918 466.901 286.561 466.921 279.205 466.947C271.649 466.973 264.094 466.987 256.538 466.989C252.297 466.99 248.056 466.996 243.815 467.017C240.203 467.034 236.591 467.04 232.979 467.03C231.137 467.026 229.296 467.029 227.454 467.043C225.454 467.057 223.455 467.05 221.455 467.039C220.877 467.048 220.299 467.057 219.703 467.066C216 467.017 205.838 465.852 205.852 460.064C205.956 417 205.852 418.975 205.852 397.559Z" fill="#031417"/>
    <path d="M218 218C266.51 218 315.02 218 365 218C365 221.96 365 225.92 365 230C316.49 230 267.98 230 218 230C218 226.04 218 222.08 218 218Z" class="primary-fill-color" fill="#6CC365"/>
    <path d="M217.871 265.601C228.989 265.601 240.107 265.601 251.562 265.601C251.562 281.166 251.562 296.731 251.562 312.769C240.444 312.954 229.326 313.139 217.871 313.33C217.871 297.579 217.871 281.829 217.871 265.601Z" fill="#021214"/>
    <path d="M332.422 265.601C343.355 265.601 354.288 265.601 365.552 265.601C365.552 281.351 365.552 297.102 365.552 313.33C349.152 313.052 349.152 313.052 332.422 312.769C332.422 297.203 332.422 281.638 332.422 265.601Z" fill="#021214"/>
    <path d="M251.589 476.647C252.313 476.642 253.037 476.637 253.784 476.632C254.591 476.63 255.398 476.627 256.206 476.625C257.052 476.621 257.899 476.616 258.746 476.611C261.531 476.596 264.316 476.588 267.101 476.58C268.06 476.577 269.018 476.574 269.976 476.571C273.963 476.559 277.949 476.548 281.936 476.542C287.651 476.533 293.366 476.514 299.081 476.482C303.098 476.46 307.115 476.449 311.132 476.446C313.532 476.444 315.932 476.438 318.332 476.419C320.59 476.403 322.848 476.399 325.107 476.406C325.935 476.406 326.763 476.401 327.591 476.391C334.627 476.312 334.627 476.312 336.837 478.088C338.51 480.114 338.795 481.325 338.757 483.978C338.496 485.923 337.612 487.063 336.353 488.525C334.195 490.099 332.684 490.422 330.033 490.428C328.971 490.436 328.971 490.436 327.888 490.445C327.108 490.442 326.328 490.44 325.548 490.437C324.723 490.44 323.898 490.444 323.074 490.449C320.837 490.459 318.6 490.458 316.363 490.455C314.495 490.453 312.626 490.456 310.758 490.46C306.349 490.468 301.941 490.467 297.532 490.46C292.986 490.454 288.441 490.462 283.895 490.477C279.99 490.489 276.085 490.493 272.18 490.49C269.848 490.488 267.517 490.489 265.186 490.499C262.993 490.508 260.801 490.505 258.608 490.495C257.805 490.493 257.001 490.495 256.198 490.5C248.635 490.552 248.635 490.552 245.948 487.964C244.309 485.639 244.025 483.897 244.495 481.169C244.999 479.538 245.877 478.488 247.071 477.295C248.615 476.522 249.859 476.656 251.589 476.647Z" fill="#0B171D"/>
    <path d="M203.284 338.037C204.025 338.037 204.766 338.037 205.53 338.037C205.53 353.232 205.53 368.427 205.53 384.082C200.527 384.082 195.524 384.082 190.369 384.082C190.369 385.75 190.369 387.417 190.369 389.136C191.255 389.084 191.255 389.084 192.159 389.03C194.403 389.141 195.349 389.476 197.107 390.82C197.97 392.546 197.761 394.359 197.768 396.253C197.773 396.92 197.773 396.92 197.779 397.601C197.79 399.076 197.797 400.551 197.802 402.027C197.805 402.53 197.807 403.034 197.809 403.552C197.821 406.217 197.829 408.882 197.834 411.546C197.841 414.299 197.86 417.052 197.882 419.805C197.897 421.922 197.902 424.038 197.904 426.154C197.906 427.169 197.913 428.184 197.923 429.198C197.937 430.619 197.936 432.04 197.932 433.461C197.94 433.879 197.947 434.298 197.954 434.729C197.927 437.471 197.379 438.874 195.422 440.796C192.743 442.136 189.325 441.724 186.438 441.357C183.725 440.4 180.613 438.901 178.577 436.865C178.52 435.399 178.5 433.947 178.504 432.481C178.503 432.021 178.502 431.562 178.501 431.089C178.499 429.563 178.5 428.038 178.502 426.512C178.502 425.457 178.501 424.401 178.501 423.346C178.5 421.131 178.501 418.916 178.504 416.701C178.507 413.856 178.505 411.01 178.502 408.164C178.5 405.984 178.5 403.804 178.502 401.624C178.502 400.574 178.502 399.524 178.5 398.475C178.499 397.01 178.501 395.546 178.504 394.082C178.503 393.644 178.502 393.206 178.501 392.754C178.513 389.761 178.513 389.761 179.138 389.136C179.991 389.095 180.846 389.089 181.7 389.101C182.396 389.108 182.396 389.108 183.106 389.116C183.644 389.126 183.644 389.126 184.192 389.136C184.159 388.52 184.127 387.904 184.093 387.269C184.067 386.452 184.041 385.636 184.017 384.819C183.993 384.414 183.969 384.009 183.945 383.592C183.936 383.195 183.927 382.799 183.918 382.391C183.903 382.029 183.888 381.667 183.873 381.295C184.192 380.151 184.192 380.151 187 377.344C192.373 377.344 197.747 377.344 203.284 377.344C203.284 364.373 203.284 351.401 203.284 338.037Z" fill="#031115"/>
    <path d="M377.905 338.037C379.017 338.037 380.129 338.037 381.274 338.037C381.089 351.008 380.904 363.979 380.713 377.344C385.716 377.344 390.719 377.344 395.874 377.344C398.682 380.151 398.682 380.151 399 381.295C398.986 381.657 398.971 382.018 398.956 382.391C398.947 382.787 398.938 383.183 398.928 383.592C398.905 383.997 398.881 384.402 398.857 384.819C398.844 385.235 398.832 385.651 398.819 386.079C398.786 387.099 398.735 388.117 398.682 389.136C399.04 389.17 399.398 389.204 399.767 389.239C400.463 389.309 400.463 389.309 401.173 389.381C401.867 389.45 401.867 389.45 402.575 389.52C403.735 389.697 403.735 389.697 404.297 390.259C404.377 391.693 404.421 393.112 404.441 394.547C404.449 394.997 404.457 395.446 404.466 395.909C404.536 400.059 404.575 404.21 404.605 408.361C404.625 411.151 404.655 413.94 404.709 416.729C404.761 419.424 404.788 422.119 404.798 424.814C404.806 425.841 404.823 426.868 404.848 427.895C405.039 435.933 405.039 435.933 403.216 438.223C401.908 439.116 400.726 439.693 399.243 440.234C398.856 440.438 398.469 440.642 398.07 440.852C396.428 441.625 394.903 441.57 393.102 441.603C392.425 441.626 391.748 441.648 391.051 441.671C388.55 441.261 387.876 440.536 386.328 438.55C386.053 436.883 385.949 435.54 385.974 433.876C385.97 433.413 385.966 432.95 385.962 432.473C385.952 430.946 385.963 429.421 385.975 427.894C385.975 426.832 385.973 425.77 385.971 424.708C385.969 422.485 385.978 420.262 385.993 418.038C386.012 415.186 386.009 412.335 385.998 409.483C385.992 407.291 385.997 405.099 386.006 402.907C386.009 401.856 386.008 400.804 386.005 399.752C386.002 398.284 386.013 396.816 386.029 395.348C386.025 394.913 386.021 394.477 386.017 394.028C386.07 391.09 386.07 391.09 387.395 389.705C389.34 388.766 390.931 389.029 393.066 389.136C393.066 387.468 393.066 385.8 393.066 384.082C388.063 384.082 383.06 384.082 377.905 384.082C377.905 368.887 377.905 353.692 377.905 338.037Z" fill="#021012"/>
    <rect x="205.6" y="328" width="173" height="58" fill="#FFFFF0"/>
    <path d="M261.49 328.341C262.016 328.336 262.541 328.331 263.083 328.326C263.656 328.327 264.229 328.327 264.819 328.328C265.729 328.322 265.729 328.322 266.657 328.317C268.665 328.306 270.673 328.304 272.681 328.303C274.077 328.299 275.473 328.295 276.869 328.291C279.798 328.284 282.726 328.282 285.655 328.283C289.404 328.284 293.152 328.268 296.901 328.248C299.785 328.236 302.67 328.234 305.554 328.234C306.936 328.233 308.318 328.228 309.7 328.219C311.635 328.208 313.57 328.212 315.506 328.218C316.358 328.209 316.358 328.209 317.228 328.199C321.269 328.235 324.265 329.063 327.382 331.698C327.632 332.006 327.882 332.315 328.14 332.632C328.529 333.091 328.529 333.091 328.926 333.558C330.908 336.752 330.917 339.977 330.926 343.613C330.932 344.412 330.932 344.412 330.937 345.228C330.943 346.352 330.946 347.476 330.946 348.6C330.948 350.311 330.968 352.021 330.99 353.731C330.993 354.827 330.995 355.923 330.996 357.019C331.004 357.526 331.012 358.033 331.021 358.555C330.992 362.598 330.057 365.671 327.158 368.57C323.559 370.798 320.165 370.769 316.058 370.76C315.433 370.763 314.808 370.765 314.164 370.768C312.102 370.776 310.04 370.776 307.978 370.774C306.543 370.776 305.108 370.779 303.674 370.782C300.668 370.786 297.662 370.786 294.656 370.783C291.186 370.779 287.717 370.786 284.247 370.798C280.902 370.809 277.557 370.811 274.213 370.809C272.792 370.809 271.372 370.812 269.952 370.818C267.966 370.825 265.982 370.821 263.996 370.814C263.41 370.819 262.823 370.823 262.219 370.827C258.658 370.802 256.03 370.483 253.324 367.936C252.921 367.433 252.921 367.433 252.51 366.92C252.097 366.416 252.097 366.416 251.675 365.9C250.521 364.341 250.366 363.35 250.349 361.44C250.344 360.937 250.338 360.435 250.333 359.917C250.33 359.372 250.328 358.827 250.326 358.265C250.321 357.423 250.321 357.423 250.316 356.565C250.311 355.374 250.307 354.184 250.305 352.993C250.299 351.182 250.282 349.37 250.264 347.559C250.26 346.401 250.258 345.244 250.255 344.087C250.248 343.548 250.242 343.01 250.234 342.455C250.247 338.652 250.638 335.297 253.192 332.286C253.57 331.983 253.947 331.681 254.335 331.369C254.711 331.058 255.087 330.746 255.474 330.426C257.501 328.986 258.986 328.351 261.49 328.341Z" fill="#41595D"/>
    <path d="M329.053 340.283C330.538 341.677 330.736 342.522 330.964 344.569C330.979 345.383 330.984 346.198 330.981 347.013C330.984 347.448 330.987 347.883 330.99 348.331C330.993 349.25 330.993 350.169 330.988 351.089C330.983 352.484 330.999 353.878 331.017 355.273C331.018 356.17 331.018 357.066 331.016 357.963C331.022 358.374 331.028 358.786 331.035 359.211C330.986 362.936 329.807 365.92 327.158 368.57C323.559 370.798 320.165 370.77 316.058 370.76C315.433 370.763 314.808 370.766 314.164 370.768C312.102 370.776 310.04 370.776 307.978 370.774C306.543 370.777 305.108 370.779 303.673 370.782C300.667 370.786 297.662 370.786 294.656 370.783C291.186 370.779 287.716 370.786 284.247 370.798C280.902 370.809 277.557 370.811 274.212 370.809C272.792 370.809 271.372 370.812 269.952 370.818C267.966 370.825 265.981 370.821 263.996 370.815C263.41 370.819 262.823 370.823 262.219 370.828C258.657 370.802 256.029 370.483 253.324 367.936C253.055 367.601 252.787 367.266 252.51 366.921C252.234 366.584 251.958 366.247 251.674 365.901C250.026 363.672 250.369 361.383 250.385 358.721C250.385 358.212 250.386 357.703 250.387 357.178C250.39 355.547 250.397 353.917 250.404 352.286C250.407 351.182 250.41 350.078 250.412 348.974C250.418 346.264 250.428 343.554 250.439 340.845C254.159 340.704 254.159 340.704 256.055 341.968C256.289 343.53 256.289 343.53 256.322 345.497C256.34 346.2 256.357 346.904 256.375 347.628C256.39 348.735 256.39 348.735 256.406 349.864C256.434 351.322 256.465 352.779 256.498 354.236C256.508 354.884 256.517 355.533 256.528 356.201C256.448 357.647 256.448 357.647 257.178 358.252C258.051 358.313 258.928 358.335 259.803 358.341C260.655 358.349 260.655 358.349 261.524 358.358C262.152 358.361 262.78 358.364 263.427 358.367C264.084 358.373 264.742 358.378 265.419 358.384C267.226 358.399 269.034 358.411 270.841 358.422C272.728 358.435 274.615 358.45 276.502 358.465C280.078 358.493 283.654 358.518 287.229 358.543C291.299 358.57 295.369 358.601 299.439 358.632C307.813 358.696 316.187 358.756 324.56 358.814C324.547 358.061 324.547 358.061 324.534 357.294C324.505 355.432 324.484 353.571 324.468 351.709C324.459 350.903 324.448 350.098 324.433 349.292C324.413 348.134 324.403 346.976 324.396 345.817C324.383 344.772 324.383 344.772 324.369 343.705C324.56 341.968 324.56 341.968 325.325 340.9C326.661 340.004 327.482 340.008 329.053 340.283Z" fill="#041316"/>
    <path d="M309.399 272.9C311.45 274.097 312.439 275.225 313.33 277.393C313.48 278.727 313.48 278.727 313.493 280.223C313.504 281.066 313.504 281.066 313.515 281.927C313.516 282.531 313.517 283.135 313.519 283.758C313.522 284.382 313.526 285.007 313.53 285.65C313.536 286.971 313.538 288.292 313.538 289.612C313.541 291.63 313.561 293.647 313.582 295.664C313.585 296.948 313.588 298.232 313.589 299.516C313.597 300.118 313.605 300.72 313.613 301.34C313.592 304.756 313.42 306.83 311.084 309.399C308.956 310.644 307.584 311.084 305.118 311.084C302.817 310.402 301.9 309.581 300.415 307.715C299.507 305.794 299.145 304.243 299.111 302.125C299.1 301.587 299.089 301.049 299.078 300.495C299.073 299.92 299.069 299.345 299.064 298.752C299.057 298.155 299.051 297.558 299.044 296.942C299.034 295.68 299.026 294.418 299.022 293.156C299.011 291.23 298.976 289.306 298.941 287.382C298.934 286.153 298.928 284.925 298.923 283.697C298.909 283.124 298.896 282.551 298.881 281.961C298.903 278.521 299.388 276.636 301.827 274.155C304.02 272.332 306.686 272.588 309.399 272.9Z" fill="#7D8C91"/>
    <path d="M351.514 272.9C353.192 273.6 353.992 274.053 354.943 275.589C355.53 277.044 355.594 278.146 355.608 279.713C355.618 280.573 355.618 280.573 355.629 281.451C355.631 282.068 355.632 282.684 355.633 283.319C355.637 283.956 355.641 284.593 355.645 285.249C355.65 286.597 355.653 287.944 355.653 289.291C355.655 291.349 355.676 293.406 355.697 295.464C355.7 296.774 355.702 298.083 355.703 299.393C355.711 300.007 355.72 300.621 355.728 301.254C355.707 304.703 355.531 306.787 353.198 309.399C350.962 310.931 348.517 310.906 345.899 310.522C343.871 309.315 342.85 308.191 341.968 306.03C341.814 304.674 341.814 304.674 341.796 303.148C341.787 302.575 341.778 302.001 341.769 301.41C341.766 300.794 341.763 300.177 341.76 299.542C341.752 298.587 341.752 298.587 341.744 297.612C341.736 296.265 341.731 294.918 341.729 293.571C341.722 291.512 341.695 289.455 341.666 287.397C341.661 286.087 341.657 284.778 341.654 283.468C341.643 282.854 341.632 282.24 341.621 281.607C341.649 276.837 341.649 276.837 343.321 274.767C345.889 272.463 348.173 272.606 351.514 272.9Z" fill="#7D8D92"/>
    <path d="M236.963 272.9C239.079 273.82 240.235 274.893 241.455 276.831C241.673 278.187 241.673 278.187 241.682 279.713C241.689 280.286 241.696 280.86 241.704 281.451C241.702 282.067 241.7 282.684 241.699 283.319C241.702 283.956 241.705 284.593 241.708 285.249C241.711 286.596 241.711 287.944 241.706 289.291C241.701 291.349 241.717 293.406 241.735 295.464C241.736 296.774 241.736 298.083 241.734 299.393C241.743 300.314 241.743 300.314 241.753 301.254C241.722 304.699 241.538 306.789 239.209 309.399C236.973 310.931 234.528 310.906 231.909 310.522C229.883 309.315 228.859 308.192 227.979 306.03C227.825 304.649 227.825 304.649 227.807 303.088C227.798 302.501 227.789 301.915 227.779 301.31C227.776 300.68 227.773 300.049 227.77 299.399C227.765 298.749 227.76 298.098 227.755 297.427C227.747 296.052 227.742 294.676 227.74 293.3C227.733 291.195 227.705 289.09 227.677 286.986C227.672 285.649 227.668 284.312 227.665 282.975C227.654 282.345 227.643 281.716 227.632 281.067C227.657 276.694 227.657 276.694 229.332 274.482C231.899 272.682 233.879 272.601 236.963 272.9Z" fill="#7E8F94"/>
    <path d="M280.762 272.901C282.813 274.097 283.8 275.225 284.692 277.393C284.843 278.706 284.843 278.706 284.856 280.172C284.866 280.998 284.866 280.998 284.877 281.841C284.878 282.433 284.88 283.025 284.881 283.635C284.885 284.247 284.889 284.859 284.892 285.49C284.898 286.784 284.901 288.078 284.901 289.373C284.903 291.349 284.923 293.326 284.945 295.302C284.948 296.561 284.95 297.819 284.951 299.077C284.959 299.667 284.967 300.257 284.976 300.864C284.95 305.002 284.26 306.822 281.499 309.891C279.419 310.902 277.41 310.89 275.146 310.523C273.119 309.315 272.098 308.191 271.216 306.03C271.054 304.653 271.054 304.653 271.026 303.097C271.013 302.512 271.001 301.927 270.988 301.325C270.981 300.696 270.975 300.067 270.968 299.419C270.96 298.77 270.953 298.121 270.945 297.451C270.931 296.078 270.922 294.704 270.915 293.331C270.9 291.232 270.858 289.134 270.816 287.035C270.806 285.7 270.798 284.365 270.792 283.03C270.776 282.403 270.759 281.777 270.742 281.131C270.766 276.88 270.766 276.88 272.066 275.117C274.828 272.666 277.137 272.176 280.762 272.901Z" fill="#7F8E92"/>
    <path d="M259.43 504.109C260.011 504.107 260.592 504.104 261.19 504.102C261.828 504.105 262.465 504.108 263.121 504.112C263.792 504.111 264.463 504.109 265.155 504.108C266.996 504.107 268.837 504.11 270.678 504.116C272.604 504.121 274.53 504.12 276.456 504.119C279.691 504.12 282.925 504.125 286.16 504.132C289.9 504.141 293.641 504.144 297.381 504.144C300.978 504.143 304.575 504.146 308.172 504.151C309.703 504.153 311.235 504.154 312.766 504.154C314.904 504.156 317.041 504.16 319.179 504.166C319.816 504.166 320.453 504.166 321.11 504.166C321.691 504.168 322.272 504.17 322.871 504.173C323.629 504.174 323.629 504.174 324.403 504.176C325.684 504.248 325.684 504.248 327.368 504.81C327.554 505.921 327.739 507.033 327.93 508.179C326.188 509.71 325.109 510.074 322.803 510.077C322.221 510.082 321.639 510.087 321.04 510.092C320.405 510.088 319.77 510.085 319.115 510.081C318.108 510.086 318.108 510.086 317.081 510.09C315.242 510.096 313.404 510.095 311.565 510.09C309.64 510.085 307.716 510.089 305.791 510.092C302.56 510.095 299.329 510.091 296.098 510.083C292.362 510.074 288.625 510.077 284.889 510.086C281.681 510.094 278.473 510.095 275.265 510.09C273.349 510.088 271.433 510.087 269.517 510.093C267.382 510.097 265.247 510.091 263.112 510.081C262.158 510.086 262.158 510.086 261.184 510.092C260.604 510.087 260.024 510.082 259.426 510.077C258.921 510.077 258.416 510.076 257.896 510.075C256.353 509.82 255.853 509.424 254.932 508.179C254.721 506.74 254.721 506.74 254.932 505.371C256.773 504.143 257.297 504.108 259.43 504.109Z" fill="#051417"/>
    <path d="M338.037 480.664C338.222 480.664 338.408 480.664 338.599 480.664C338.599 482.146 338.599 483.629 338.599 485.156C309.135 484.971 279.672 484.786 249.316 484.595C249.316 483.668 249.316 482.742 249.316 481.787C278.594 481.787 307.872 481.787 338.037 481.787C338.037 481.417 338.037 481.046 338.037 480.664Z" fill="#4A5E67"/>
    <path d="M179.725 389.081C180.419 389.091 180.419 389.091 181.126 389.101C181.59 389.106 182.054 389.111 182.532 389.116C182.891 389.122 183.249 389.129 183.618 389.136C183.584 395.486 183.541 401.836 183.486 408.186C183.461 411.135 183.439 414.083 183.424 417.031C183.409 419.875 183.386 422.718 183.358 425.562C183.349 426.649 183.342 427.735 183.339 428.822C183.333 430.34 183.318 431.858 183.299 433.376C183.3 433.829 183.301 434.282 183.302 434.748C183.281 435.999 183.281 435.999 183.057 437.988C182.223 438.544 182.223 438.544 181.372 439.111C179.712 438.274 179.712 438.274 178.003 436.865C177.67 435.188 177.568 433.964 177.612 432.289C177.61 431.83 177.609 431.37 177.607 430.897C177.607 429.38 177.63 427.864 177.654 426.348C177.659 425.295 177.663 424.242 177.665 423.189C177.674 420.418 177.705 417.649 177.739 414.878C177.763 412.611 177.773 410.344 177.782 408.077C177.793 405.381 177.81 402.686 177.83 399.991C177.833 399.474 177.837 398.956 177.841 398.423C177.852 396.967 177.868 395.511 177.886 394.055C177.891 393.402 177.891 393.402 177.896 392.735C177.947 389.165 177.947 389.165 179.725 389.081Z" fill="#1D3A3E"/>
    <path d="M399.243 389.136C403.735 389.697 403.735 389.697 404.297 390.259C404.365 391.699 404.397 393.124 404.405 394.565C404.41 395.016 404.414 395.467 404.419 395.932C404.433 397.431 404.442 398.931 404.45 400.43C404.453 400.941 404.456 401.452 404.459 401.978C404.474 404.682 404.485 407.386 404.493 410.09C404.503 412.887 404.528 415.683 404.557 418.48C404.575 420.627 404.582 422.774 404.585 424.921C404.589 425.952 404.597 426.983 404.611 428.014C404.629 429.456 404.629 430.898 404.625 432.341C404.634 432.768 404.643 433.195 404.652 433.634C404.627 435.804 404.473 436.682 402.943 438.271C401.489 439.111 401.489 439.111 400.366 439.111C400.366 438.741 400.366 438.37 400.366 437.988C399.996 437.988 399.625 437.988 399.243 437.988C399.243 421.867 399.243 405.746 399.243 389.136Z" fill="#1A3B40"/>
    <path d="M374.536 471.68C374.721 471.68 374.907 471.68 375.098 471.68C375.776 479.973 375.776 479.973 374.255 482.781C370.49 486.627 365.318 488.932 359.956 489.197C359.22 489.184 358.484 489.171 357.726 489.157C357.342 489.152 356.958 489.147 356.562 489.142C355.628 489.129 354.694 489.109 353.76 489.087C353.745 487.66 353.733 486.233 353.725 484.805C353.72 484.405 353.715 484.005 353.71 483.592C353.7 481.24 353.857 479.051 354.321 476.733C354.864 476.73 354.864 476.73 355.418 476.726C357.088 476.708 358.758 476.668 360.428 476.628C360.997 476.625 361.566 476.622 362.152 476.618C367.041 476.477 371.082 475.267 374.536 471.68Z" fill="#F7C1A7"/>
    <path d="M251.001 452.588C255.487 452.457 259.973 452.358 264.46 452.297C266.545 452.268 268.628 452.228 270.712 452.164C286.769 451.682 286.769 451.682 291.161 455.347C292.718 456.877 292.718 456.877 293.677 458.203C293.677 458.574 293.677 458.944 293.677 459.326C289.244 459.444 284.813 459.533 280.379 459.588C278.32 459.614 276.261 459.65 274.203 459.707C272.211 459.763 270.22 459.793 268.228 459.806C267.108 459.819 265.989 459.859 264.87 459.899C260.006 459.901 257.485 458.841 253.912 455.525C253.507 455.112 253.103 454.698 252.686 454.272C252.186 453.775 252.186 453.775 251.676 453.268C251.453 453.043 251.23 452.819 251.001 452.588Z" fill="#51696F"/>
    <path d="M208.887 472.803C209.223 473.039 209.56 473.276 209.907 473.52C215.467 476.881 221.053 476.683 227.398 476.672C228.54 476.733 228.54 476.733 229.102 477.295C229.15 478.172 229.162 479.051 229.157 479.929C229.155 480.459 229.153 480.99 229.151 481.536C229.144 482.373 229.144 482.373 229.137 483.226C229.134 483.786 229.132 484.346 229.129 484.923C229.122 486.311 229.113 487.699 229.102 489.087C221.42 489.673 216.34 488.696 210.082 483.928C208.419 481.73 208.566 480.074 208.711 477.4C208.724 476.958 208.737 476.515 208.75 476.059C208.783 474.973 208.833 473.888 208.887 472.803Z" fill="#F9C8AD"/>
    <path d="M330.737 452.588C335.174 452.549 339.611 452.519 344.048 452.501C346.108 452.492 348.169 452.48 350.229 452.461C352.217 452.442 354.204 452.432 356.192 452.428C357.321 452.423 358.449 452.41 359.577 452.397C360.605 452.397 360.605 452.397 361.655 452.397C362.562 452.391 362.562 452.391 363.487 452.385C364.99 452.588 364.99 452.588 366.045 453.317C366.675 454.272 366.675 454.272 366.605 456.273C366.113 458.203 366.113 458.203 364.429 459.326C363.262 459.495 363.262 459.495 361.904 459.534C361.394 459.55 360.884 459.566 360.358 459.583C358.017 459.626 355.676 459.667 353.334 459.688C352.104 459.704 350.874 459.731 349.644 459.769C338.116 460.125 338.116 460.125 334.495 456.88C333.342 455.529 333.342 455.529 332.422 454.272C331.867 453.704 331.306 453.142 330.737 452.588Z" fill="#54686D"/>
    <path d="M220.202 452.362C220.685 452.343 221.167 452.323 221.664 452.302C223.893 452.244 226.121 452.194 228.351 452.164C229.519 452.143 230.687 452.108 231.855 452.06C243.079 451.602 243.079 451.602 247.603 455.67C248.634 456.664 249.528 457.653 250.439 458.765C250.439 458.95 250.439 459.135 250.439 459.326C246.013 459.383 241.586 459.422 237.159 459.45C235.653 459.46 234.147 459.475 232.641 459.496C230.476 459.523 228.312 459.536 226.147 459.546C225.474 459.557 224.8 459.569 224.107 459.581C219.411 459.582 219.411 459.582 217.143 458.189C216.67 457.64 216.67 457.64 216.187 457.08C216.593 453.967 216.869 452.489 220.202 452.362Z" fill="#506569"/>
    <path d="M294.8 452.588C298.674 452.43 302.548 452.323 306.425 452.249C307.741 452.218 309.057 452.176 310.372 452.122C322.494 451.639 322.494 451.639 326.273 454.798C327.537 456.05 328.599 457.3 329.614 458.765C329.614 458.95 329.614 459.135 329.614 459.326C325.92 459.484 322.227 459.592 318.53 459.665C317.277 459.696 316.023 459.738 314.77 459.792C307.724 460.087 302.338 460.263 296.884 455.376C296.156 454.666 295.472 453.912 294.8 453.149C294.8 452.964 294.8 452.779 294.8 452.588Z" fill="#52676B"/>
    <path d="M204.395 466.064C205.395 467.292 206.07 468.284 206.606 469.785C207.325 471.391 207.887 471.554 209.448 472.241C209.446 472.95 209.443 473.658 209.44 474.388C209.429 477.011 209.423 479.633 209.418 482.256C209.415 483.392 209.411 484.528 209.406 485.664C209.399 487.295 209.396 488.926 209.394 490.557C209.389 491.322 209.389 491.322 209.385 492.102C209.385 492.574 209.385 493.046 209.385 493.533C209.383 494.157 209.383 494.157 209.381 494.795C209.385 495.88 209.385 495.88 210.01 496.948C208.107 496.142 207.023 495.149 205.693 493.579C205.186 492.988 205.186 492.988 204.669 492.386C203.833 491.333 203.833 491.333 203.272 490.21C203.086 496.14 202.901 502.069 202.71 508.179C202.525 508.179 202.34 508.179 202.149 508.179C202.042 486.233 202.042 486.233 202.359 477.4C202.377 476.833 202.394 476.265 202.412 475.681C202.433 475.167 202.455 474.654 202.478 474.125C202.495 473.689 202.513 473.253 202.531 472.803C202.71 471.68 202.71 471.68 203.833 469.995C204.054 468.69 204.246 467.38 204.395 466.064Z" fill="#C9D2D5"/>
    <path d="M379.028 463.818C379.214 463.818 379.399 463.818 379.59 463.818C380.016 469.02 380.366 474.222 380.608 479.436C380.651 480.142 380.694 480.848 380.738 481.575C380.967 486.804 380.227 489.715 376.993 493.86C376.553 494.323 376.113 494.786 375.659 495.264C375.289 495.264 374.918 495.264 374.536 495.264C374.499 490.584 374.5 485.905 374.536 481.226C374.54 480.703 374.543 480.18 374.546 479.641C374.649 470.607 374.649 470.607 377.905 466.626C378.309 465.703 378.701 464.772 379.028 463.818Z" fill="#D2DEE1"/>
    <path d="M337.476 479.541C337.661 480.282 337.846 481.023 338.037 481.787C308.759 481.787 279.481 481.787 249.316 481.787C249.316 482.714 249.316 483.64 249.316 484.595C278.594 484.595 307.872 484.595 338.037 484.595C338.037 484.78 338.037 484.965 338.037 485.156C326.425 485.169 314.813 485.179 303.202 485.185C297.81 485.188 292.419 485.192 287.027 485.199C282.329 485.204 277.631 485.208 272.933 485.209C270.445 485.21 267.956 485.212 265.468 485.216C263.127 485.219 260.786 485.221 258.445 485.22C257.585 485.22 256.724 485.221 255.864 485.223C254.692 485.226 253.519 485.225 252.347 485.224C251.362 485.225 251.362 485.225 250.357 485.225C248.755 485.156 248.755 485.156 247.07 484.595C247.07 483.668 247.07 482.742 247.07 481.787C248.644 481 249.936 481.157 251.697 481.158C252.06 481.158 252.423 481.157 252.797 481.157C254.02 481.156 255.243 481.159 256.465 481.162C257.339 481.162 258.214 481.162 259.088 481.162C261.466 481.161 263.844 481.165 266.223 481.169C268.706 481.172 271.19 481.172 273.673 481.173C278.378 481.175 283.084 481.18 287.789 481.185C293.145 481.191 298.5 481.195 303.856 481.197C314.876 481.203 325.895 481.213 336.914 481.226C337.099 480.67 337.285 480.114 337.476 479.541Z" fill="#1A2C34"/>
    <path d="M234.717 505.371C236.801 506.575 237.408 507.217 238.086 509.547C238.086 511.783 237.815 512.649 236.402 514.355C234.599 515.66 232.968 515.746 230.786 515.478C229.27 514.468 228.236 513.747 227.417 512.109C227.207 510.249 227.207 510.249 227.417 508.179C229.797 505.298 231.078 504.443 234.717 505.371Z" fill="#F2F5F5"/>
    <path d="M351.424 505.042C353.667 505.65 354.297 506.741 355.444 508.74C355.857 510.987 355.662 511.782 354.392 513.689C353.006 515.115 352.489 515.422 350.531 515.689C348.012 515.398 347.034 514.526 345.337 512.671C344.67 510.741 344.67 510.741 344.775 508.74C346.442 505.684 347.928 504.797 351.424 505.042Z" fill="#F3F5F6"/>
    <path d="M365.589 505.138C367.413 505.529 368.286 506.204 369.482 507.617C370.114 509.512 370.114 509.512 370.044 511.548C368.685 513.84 367.834 514.735 365.271 515.514C363.072 515.474 362.179 515.187 360.498 513.794C359.195 511.994 359.064 510.356 359.375 508.179C361.128 505.658 362.617 504.925 365.589 505.138Z" fill="#F1F3F4"/>
    <path d="M219.503 505.123C220.679 505.371 220.679 505.371 222.117 506.178C223.324 508.33 223.35 510.263 222.925 512.671C221.998 514.215 221.319 514.702 219.628 515.27C218.399 515.528 217.434 515.634 216.186 515.479C214.537 514.145 214.537 514.145 213.379 512.671C213.193 512.486 213.008 512.3 212.817 512.109C212.501 509.841 212.752 508.854 213.905 506.845C215.559 505.05 217.141 504.938 219.503 505.123Z" fill="#F4F7F7"/>
    <path d="M221.24 480.103C223.834 480.103 226.429 480.103 229.102 480.103C229.102 483.067 229.102 486.032 229.102 489.087C226.507 489.087 223.913 489.087 221.24 489.087C221.24 486.122 221.24 483.157 221.24 480.103Z" fill="#4E5B5E"/>
    <path d="M353.76 480.103C356.354 480.103 358.948 480.103 361.621 480.103C361.621 482.882 361.621 485.662 361.621 488.525C359.707 489.004 358.362 489.147 356.427 489.122C355.547 489.11 354.667 489.099 353.76 489.087C353.76 486.122 353.76 483.157 353.76 480.103Z" fill="#5C6467"/>
    <path d="M238.647 480.664C240.161 482.022 240.785 482.915 241.174 484.911C240.787 486.799 240.23 487.43 238.647 488.525C236.682 488.841 236.682 488.841 234.717 488.525C233.203 487.167 232.579 486.275 232.19 484.279C232.916 480.739 235.356 480.135 238.647 480.664Z" fill="#152B2C"/>
    <path d="M348.706 480.664C349.794 481.261 349.794 481.261 350.391 482.349C350.672 484.556 350.727 485.774 349.478 487.648C347.731 488.798 346.828 488.91 344.775 488.525C343.407 487.332 343.407 487.332 342.529 485.718C342.565 483.93 342.804 482.826 343.723 481.296C345.407 480.285 346.793 480.459 348.706 480.664Z" fill="#0C161B"/>
    <path d="M279.077 341.406C280.56 341.406 282.042 341.406 283.569 341.406C283.755 341.962 283.94 342.518 284.131 343.091C284.501 343.091 284.872 343.091 285.254 343.091C285.254 344.573 285.254 346.056 285.254 347.583C283.695 348.643 282.903 348.702 280.972 348.636C279.077 348.145 279.077 348.145 278.27 347.197C277.883 345.607 277.88 344.16 277.954 342.529C278.325 342.529 278.695 342.529 279.077 342.529C279.077 342.159 279.077 341.788 279.077 341.406Z" fill="#07151A"/>
    <path d="M299.906 341.36C300.352 341.41 300.798 341.46 301.257 341.511C301.926 341.576 301.926 341.576 302.608 341.641C303.784 341.968 303.784 341.968 304.907 343.652C304.826 345.586 304.7 346.642 303.363 348.074C301.845 348.833 300.968 348.964 299.292 348.706C298.274 348.144 298.274 348.144 297.607 347.021C297.401 345.448 297.48 344.136 297.607 342.529C298.73 341.406 298.73 341.406 299.906 341.36Z" fill="#031218"/>
    <path d="M202.71 487.964C203.081 488.705 203.451 489.446 203.833 490.21C205.498 493.047 207.464 494.932 210.01 496.948C209.824 497.319 209.639 497.689 209.448 498.071C207.765 497.51 207.187 497.144 206.079 495.825C206.079 495.455 206.079 495.084 206.079 494.702C205.708 494.702 205.338 494.702 204.956 494.702C204.956 494.332 204.956 493.961 204.956 493.579C204.4 493.857 204.4 493.857 203.833 494.141C203.657 495.669 203.545 497.135 203.482 498.668C203.413 500.139 203.343 501.61 203.271 503.125C208.275 503.125 213.278 503.125 218.433 503.125C218.433 503.31 218.433 503.496 218.433 503.687C213.244 503.687 208.056 503.687 202.71 503.687C202.71 498.498 202.71 493.31 202.71 487.964Z" fill="#284145"/>
    <path d="M234.717 481.787C234.717 483.27 234.717 484.752 234.717 486.279C235.829 486.094 236.94 485.909 238.086 485.718C238.271 485.162 238.457 484.606 238.648 484.033C239.203 484.033 239.759 484.033 240.332 484.033C240.455 485.551 240.517 486.526 239.735 487.859C237.99 488.929 236.712 488.805 234.717 488.525C233.168 487.135 232.56 486.266 232.225 484.209C232.306 483.78 232.387 483.352 232.471 482.91C234.155 481.787 234.155 481.787 234.717 481.787Z" fill="#182123"/>
    <path d="M354.321 480.664C355.248 480.664 356.174 480.664 357.129 480.664C357.708 482.5 357.67 483.955 357.445 485.858C357.388 486.359 357.33 486.86 357.271 487.376C357.224 487.755 357.177 488.135 357.129 488.525C356.202 488.525 355.276 488.525 354.321 488.525C354.321 485.931 354.321 483.337 354.321 480.664Z" fill="#404D52"/>
    <path d="M250.439 340.845C250.995 341.03 251.551 341.215 252.124 341.406C251.939 341.777 251.753 342.147 251.562 342.529C251.474 344.125 251.417 345.709 251.385 347.307C251.373 347.779 251.361 348.251 251.349 348.737C251.313 350.247 251.28 351.758 251.247 353.268C251.222 354.291 251.198 355.314 251.173 356.337C251.113 358.847 251.056 361.357 251.001 363.867C250.816 363.867 250.63 363.867 250.439 363.867C250.439 356.27 250.439 348.672 250.439 340.845Z" fill="#121C1D"/>
    <path d="M238.647 480.664C240.244 482.096 240.843 482.904 241.034 485.051C240.988 485.456 240.941 485.862 240.894 486.279C240.708 485.538 240.523 484.797 240.332 484.033C239.776 484.033 239.22 484.033 238.647 484.033C238.647 483.663 238.647 483.292 238.647 482.91C238.022 482.922 237.397 482.933 236.752 482.945C234.717 482.91 234.717 482.91 233.594 482.349C233.594 481.978 233.594 481.607 233.594 481.226C235.351 480.347 236.714 480.464 238.647 480.664Z" fill="#1D2526"/>
    <path d="M227.417 480.664C227.973 480.664 228.529 480.664 229.102 480.664C229.102 483.258 229.102 485.853 229.102 488.525C228.546 488.34 227.99 488.155 227.417 487.964C227.417 485.555 227.417 483.146 227.417 480.664Z" fill="#36454B"/>
    <path d="M380.151 487.402C380.337 487.402 380.522 487.402 380.713 487.402C380.713 489.255 380.713 491.108 380.713 493.018C380.157 493.018 379.601 493.018 379.028 493.018C379.028 493.388 379.028 493.759 379.028 494.141C378.287 494.326 377.546 494.511 376.782 494.702C377.729 492.176 378.925 489.801 380.151 487.402Z" fill="#3E565A"/>
    <path d="M238.647 484.033C239.203 484.033 239.759 484.033 240.332 484.033C240.402 485.367 240.402 485.367 240.332 486.841C239.209 487.964 239.209 487.964 237.454 488.034C236.655 487.999 236.655 487.999 235.84 487.964C236.378 487.46 236.378 487.46 236.928 486.946C238.2 485.769 238.2 485.769 238.647 484.033Z" fill="#071415"/>
    <path d="M217.871 115.112C217.871 112.631 219.882 110.62 222.363 110.62H361.06C363.541 110.62 365.552 112.631 365.552 115.112H217.871Z" fill="#556B6E"/>
    <path d="M328.491 366.675C329.047 366.86 329.603 367.045 330.176 367.236C328.956 368.771 328.009 369.892 326.056 370.355C324.806 370.486 323.571 370.575 322.314 370.605C323.999 369.482 323.999 369.482 325.719 368.64C327.386 367.896 327.386 367.896 328.491 366.675Z" fill="#C6D1D2"/>
    <path d="M290.869 457.08C291.61 457.451 292.352 457.821 293.115 458.203C293.115 458.388 293.115 458.574 293.115 458.765C289.78 458.765 286.444 458.765 283.008 458.765C283.008 458.579 283.008 458.394 283.008 458.203C283.528 458.169 284.049 458.135 284.585 458.1C285.594 458.029 285.594 458.029 286.623 457.957C287.629 457.889 287.629 457.889 288.656 457.819C290.243 457.823 290.243 457.823 290.869 457.08Z" fill="#5D7176"/>
    <path d="M250.439 339.16C252.019 339.02 252.019 339.02 253.809 339.16C254.861 340.283 254.861 340.283 255.493 341.406C251.703 341.477 251.703 341.477 250.439 340.845C250.439 340.289 250.439 339.733 250.439 339.16Z" fill="#2F3F43"/>
    <path d="M251.001 452.588C253.781 452.588 256.56 452.588 259.424 452.588C259.424 452.773 259.424 452.958 259.424 453.149C258.835 453.2 258.835 453.2 258.235 453.253C257.724 453.3 257.213 453.347 256.686 453.395C256.178 453.441 255.67 453.486 255.147 453.533C253.802 453.638 253.802 453.638 252.686 454.272C252.13 453.717 251.574 453.161 251.001 452.588Z" fill="#4C6165"/>
    <path d="M329.614 338.037C329.985 338.037 330.355 338.037 330.737 338.037C330.737 339.52 330.737 341.002 330.737 342.529C329.86 341.862 329.86 341.862 329.053 340.845C329.228 339.336 329.228 339.336 329.614 338.037Z" fill="#505D60"/>
    <path d="M365 61H218V72H365V61Z" class="primary-fill-color" fill="#6CC365"/>
    <path d="M365 230H217V243H365V230Z" fill="#011114"/>
    <path d="M202 46V262H218V46H202Z" class="primary-fill-color" fill="#6CC365"/>
    <path d="M365 46V262H382V46H365Z" class="primary-fill-color" fill="#6CC365"/>

    
    <path id="seat1" d="M334.853 409.728H304.161V440.419H334.853V409.728Z" fill="#D9D9D9" stroke="#4A5E67" stroke-width="3"/>
    <path id="seat2" d="M278.7 409.728H248.009V440.419H278.7V409.728Z" fill="#D9D9D9" stroke="#4A5E67" stroke-width="3"/>
    
    <path id="seat3" d="M335.415 183.995H304.723V214.687H335.415V183.995Z" fill="#D9D9D9" stroke="#4A5E67" stroke-width="3"/>
    <path id="seat4" d="M279.261 183.995H248.57V214.687H279.261V183.995Z" fill="#D9D9D9" stroke="#4A5E67" stroke-width="3"/>
    <path id="seat5" d="M335.415 148.058H304.723V178.75H335.415V148.058Z" fill="#D9D9D9" stroke="#4A5E67" stroke-width="3"/>
    <path id="seat6" d="M279.261 148.058H248.57V178.75H279.261V148.058Z" fill="#D9D9D9" stroke="#4A5E67" stroke-width="3"/>
    <path id="seat7" d="M335.415 112.12H304.723V142.812H335.415V112.12Z" fill="#D9D9D9" stroke="#4A5E67" stroke-width="3"/>
    <path id="seat8" d="M279.261 112.12H248.57V142.812H279.261V112.12Z" fill="#D9D9D9" stroke="#4A5E67" stroke-width="3"/>
    <path id="seat9" d="M335.415 76.1826H304.723V106.874H335.415V76.1826Z" fill="#D9D9D9" stroke="#4A5E67" stroke-width="3"/>
    <path id="seat10" d="M279.261 76.1826H248.57V106.874H279.261V76.1826Z" fill="#D9D9D9" stroke="#4A5E67" stroke-width="3"/>

    <rect x="202" y="328" width="3.5" height="19" class="secondary-fill-color" fill="#016928"/>
    <rect x="378.55" y="328" width="3.5" height="19" class="secondary-fill-color" fill="#016928"/>

    <path d="M205.6 328C205.6 320.268 211.868 314 219.6 314H364.6C372.332 314 378.6 320.268 378.6 328V328H205.6V328Z" fill="#FFFFF0"/>
    </g>
    </svg>
    